<?xml version="1.0" encoding="UTF-8"?>
<svg width="24px" height="15px" viewBox="0 0 24 15" version="1.1" xmlns="http://www.w3.org/2000/svg" xmlns:xlink="http://www.w3.org/1999/xlink">
    <!-- Generator: Sketch 54.1 (76490) - https://sketchapp.com -->
    <title>Group 2</title>
    <desc>Created with Sketch.</desc>
    <g id="Page-1" stroke="none" stroke-width="1" fill="none" fill-rule="evenodd">
        <g id="Homepage" transform="translate(-503.000000, -6771.000000)" fill="#F35A2D">
            <g id="Group-9" transform="translate(175.000000, 6760.000000)">
                <g id="youtube" transform="translate(322.000000, 0.000000)">
                    <g id="Group-2" transform="translate(6.000000, 11.000000)">
                        <path d="M7.54575,11.6564286 L3.41325,11.6564286 L3.41325,7.86785714 L7.74525,7.86785714 C7.74525,7.86785714 9.31425,7.84857143 9.31425,9.815 C9.31425,11.4542857 8.16675,11.64 7.54575,11.6564286 L7.54575,11.6564286 Z M3.41325,2.52 L7.188,2.52 L7.74525,2.52 C7.74525,2.52 8.79825,2.52 8.79825,3.99428571 C8.79825,5.46928571 8.17875,5.68285714 7.47675,5.68285714 L3.41325,5.68285714 L3.41325,2.52 Z M9.68625,6.47214286 C9.68625,6.47214286 11.95725,6.31142857 11.95725,3.775 C11.95725,1.23785714 10.0995,0 7.74525,0 L3.41325,0 L3.28575,0 L0,0 L0,14.1757143 L3.28575,14.1757143 L3.41325,14.1757143 L7.74525,14.1757143 C7.74525,14.1757143 12.47325,14.3178571 12.47325,9.99214286 C12.47325,9.99214286 12.68025,6.47214286 9.68625,6.47214286 L9.68625,6.47214286 Z" id="Fill-17"></path>
                        <path d="M21.107625,7.86821429 L16.218375,7.86821429 C16.218375,7.86821429 16.538625,5.68321429 18.837375,5.68321429 C21.136875,5.68321429 21.107625,7.86821429 21.107625,7.86821429 M18.779625,3.60678571 C13.055625,3.60678571 13.060875,9.05321429 13.060875,9.05321429 C13.060875,9.05321429 12.667875,14.4717857 18.779625,14.4717857 C18.779625,14.4717857 23.872875,14.7489286 23.872875,10.7025 L21.253125,10.7025 C21.253125,10.7025 21.340875,12.2267857 18.866625,12.2267857 C18.866625,12.2267857 16.247625,12.3939286 16.247625,9.76035714 L23.959875,9.76035714 C23.959875,9.76035714 24.803625,3.60678571 18.779625,3.60678571" id="Fill-19"></path>
                        <polygon id="Fill-21" points="21.718125 0.809642857 15.577125 0.809642857 15.577125 2.23821429 21.718125 2.23821429"></polygon>
                    </g>
                </g>
            </g>
        </g>
    </g>
</svg>