<?xml version="1.0" encoding="UTF-8"?>
<svg width="254px" height="92px" viewBox="0 0 254 92" version="1.1" xmlns="http://www.w3.org/2000/svg" xmlns:xlink="http://www.w3.org/1999/xlink">
    <!-- Generator: Sketch 54.1 (76490) - https://sketchapp.com -->
    <title>drinkup (1)</title>
    <desc>Created with Sketch.</desc>
    <g id="Page-1" stroke="none" stroke-width="1" fill="none" fill-rule="evenodd">
        <g id="Work-V2" transform="translate(-1425.000000, -3631.000000)" fill="#FFFFFF" fill-rule="nonzero">
            <g id="drinkup-(1)" transform="translate(1425.000000, 3631.000000)">
                <path d="M108.35523,26.6966985 C110.228305,26.1666998 111.365967,24.4640644 110.892807,22.8930394 C110.423927,21.3226072 108.518451,20.4831463 106.645375,21.0137378 C104.772299,21.5437364 103.632804,23.2469647 104.107798,24.816804 C104.576678,26.380715 106.482154,27.2261043 108.35523,26.6966985 Z" id="Path"></path>
                <path d="M57.0702937,12.1350993 C56.8737827,11.9194969 51.4240879,6.76406412 44.4175185,5.12421796 C41.4223099,4.42224206 38.3003201,4.32775749 35.2442565,4.64481978 C32.187559,4.96885744 29.1942521,5.71078319 26.3746357,6.87123117 C20.7290637,9.1788105 15.8593934,12.9302915 11.7795707,17.2347291 C11.2737133,17.7750032 10.760249,18.328594 10.2746765,18.8815506 C9.77008688,19.4681159 9.30353164,20.0819485 8.87818033,20.7167072 C8.02937943,21.9779809 7.33335001,23.3337393 6.77424441,24.7313498 C5.66807744,27.531644 4.99993991,30.5272485 5.17616594,33.5767536 C5.27695708,35.0948478 5.61482929,36.633234 6.34192013,38.022601 C7.06457362,39.4062608 8.22398875,40.5863666 9.60653899,41.3289265 C10.9897231,42.0708522 12.5136345,42.4082065 14.0521258,42.5236172 C15.6166072,42.5971756 17.1550985,42.3143561 18.6048428,41.8412992 C20.062194,41.3758517 21.4371374,40.7290446 22.7594665,39.9934601 C24.0887686,39.2585098 25.3559478,38.4278066 26.5635398,37.5178378 C28.9920359,35.6947296 31.217048,33.6033868 33.1599717,31.1880063 C34.1311165,29.979999 35.0223892,28.6857507 35.7773719,27.2615069 C36.5260156,25.8372631 37.1668951,24.2855603 37.4293324,22.4637204 C37.5510425,21.5594587 37.6042906,20.5619808 37.3494602,19.5150411 C36.977991,17.9766549 36.6001826,17.3824801 35.817308,16.5397286 C35.0420403,15.6823921 34.0702615,15.1161189 33.1472935,14.7578385 C32.9108464,14.663354 31.7710824,14.3329751 31.7710824,14.3329751 C31.332419,14.2384905 30.8798097,14.1636638 30.4075493,14.1237139 C29.4776084,14.0431801 28.4589205,14.0824958 27.4269206,14.3868756 C26.4012598,14.6703293 25.3768667,15.2511874 24.6009651,16.073647 C23.8187244,16.8897653 23.3198399,17.9227543 23.0973387,18.954475 C22.8748375,19.993171 22.9483707,21.0591344 23.6970143,21.8619361 C25.1137955,23.4009565 26.9483211,22.9824343 28.0950581,22.4694275 C26.7803359,22.5030361 25.5993679,21.9088614 25.1004835,20.8295813 C24.493201,19.5207482 25.0795646,17.921486 26.4088666,16.9157644 C26.718213,16.6399203 27.0763703,16.409733 27.4877756,16.24169 C29.6728516,15.2372367 32.1083206,15.8637518 32.9368365,17.6519831 C32.9368365,17.6595926 32.9431756,17.6652997 32.9431756,17.6722751 C33.8281092,19.1637361 33.340635,21.5797507 33.2531559,22.0103213 C33.0312886,23.144136 32.5856523,24.3179006 32.1007138,25.5328833 C31.6081684,26.7535731 30.9799669,27.9755312 30.2718933,29.1626124 C28.849407,31.5304335 27.0896823,33.7841123 25.0719577,35.7682881 C23.0485279,37.7245624 20.7493487,39.4918676 18.1389215,40.5381731 C16.8368774,41.0505458 15.4676392,41.3879001 14.098401,41.3479502 C12.7291628,41.2940496 11.3263275,40.9833286 10.1250746,40.3485699 C8.91748254,39.7214207 7.94063251,38.7226745 7.31243109,37.50896 C6.67852452,36.2946115 6.38185624,34.9109517 6.31466215,33.5146093 C6.24683414,32.1119258 6.40848032,30.6946574 6.71275548,29.3109975 C7.01576282,27.9216306 7.48105024,26.5722135 8.06044085,25.2836724 C8.64680443,23.9881558 9.35614589,22.7541494 10.1789566,21.6266759 C10.590362,21.0597686 11.0417035,20.5271039 11.5209368,20.0343891 C12.0267943,19.514407 12.5389908,19.0153509 13.0587942,18.5162949 C17.2267299,14.561894 22.0628032,11.3164444 27.3502179,9.41407072 C32.6249545,7.48379551 38.3580056,7.00566558 43.7874154,8.13250495 C46.4992677,8.71336306 49.12998,9.63094132 51.6396161,10.8313391 C53.0348445,11.5054136 54.3907706,12.2752408 55.6928147,13.1528692 C51.5375571,16.3298333 47.2542504,20.4662279 43.0254597,25.7491198 C39.3570423,30.3236945 36.2134996,34.5006731 33.4477652,38.2787873 C30.918478,40.7620191 29.6240408,40.7011432 28.9901342,40.6332918 C31.6474706,41.0118642 29.5156428,43.4462685 28.8291219,44.6625194 C22.2041643,54.067221 15.1367399,57.4204717 9.63316306,56.989267 C5.36063275,56.6449374 3.07349783,52.8940905 3.85573855,49.5325961 C4.53021514,46.6384516 7.11275052,45.6263887 9.15773313,45.5927801 C10.5269713,45.5655128 12.3684699,46.3347059 12.3684699,46.3347059 C11.194475,45.2484505 10.2708731,44.5401333 8.50354155,44.4056989 C5.08361558,44.1355619 0.449124616,45.5858048 0.0446922219,49.6403973 C-0.4877893,54.9099725 3.81516852,57.3722783 8.8268339,57.7711426 C18.6536536,58.546677 30.640193,53.9448349 38.402379,42.9072626 C39.7177352,41.3542915 41.5731797,41.153274 42.1455973,41.2135158 C39.2790718,40.8089443 41.9294352,37.9946995 42.6444818,36.9217607 C48.3775329,29.6692779 54.8465495,21.7877436 59.3783476,16.4649019 C62.4610352,20.8910914 61.5171483,25.3508896 60.8895808,29.4663581 C60.5460035,31.7739374 59.8575809,33.9870322 58.873124,36.1069106 C58.6366769,36.6452824 58.3596597,37.1652645 58.0839103,37.6846126 C58.0236892,37.8063645 57.9552273,37.921141 57.8880332,38.0422588 C57.8740873,38.0619167 57.8607752,38.068892 57.8544362,38.089184 C55.1698418,41.5432606 53.9286527,41.7265226 53.1730361,41.6656466 C56.3501759,42.1983113 52.9308838,45.8280404 52.6139305,46.3074385 C42.6102509,61.5175506 29.3089892,52.4831778 30.6909055,53.5358246 C34.6496521,58.4211203 45.4419115,60.1694018 54.7844266,52.0513389 C56.4021562,50.6480213 58.9796203,47.907969 60.1865784,46.3632415 C63.5792464,42.0175858 64.6106124,42.2205056 64.8071235,42.2547484 C62.6886077,41.8901267 64.0305879,40.2033554 64.3684601,39.2591439 C64.4559392,39.0492486 64.5567304,38.8342804 64.6448434,38.6174098 C65.7852413,35.8507243 66.4400668,32.8145358 66.3925238,29.7922981 C66.3646319,26.7687921 65.6565583,23.7941137 64.3887451,21.1758133 C63.7687845,19.860639 63.2825782,18.4230786 62.4058854,17.3032146 C61.8125488,16.5676301 61.2318904,15.6703438 60.5307897,15.0425605 C62.1561262,13.1471621 63.1475561,12.0811987 64.0242488,11.1496697 C68.758897,6.12296417 83.388193,0.0702450929 82.6135591,11.1902537 C82.1825027,17.457941 75.666577,19.3476322 75.666577,19.3476322 C75.666577,19.3476322 85.6017947,19.5492838 86.9038388,11.3253222 C88.3263252,2.35816656 73.7578843,0.124779806 57.0702937,12.1350993 Z" id="Path"></path>
                <path d="M101.432177,25.4995955 C101.357781,25.2412345 101.317722,24.976648 101.289744,24.7114389 C96.0400791,26.3076739 90.0928754,26.9507749 83.0418178,26.0692348 C72.2105693,24.718287 69.1927751,18.8755936 69.8432605,14.9410361 C70.4854796,11.0463221 74.4106468,8.11843858 77.9485748,8.56232142 C81.4941332,8.99997869 81.39939,12.3773481 81.39939,12.3773481 C81.39939,12.3773481 82.8205383,8.54862517 77.8538316,7.93291672 C72.8337126,7.30351203 67.7322034,10.5563701 67.0696368,14.5706149 C66.4121569,18.5848597 70.3290579,25.8177219 82.2915024,27.3081223 C89.9434482,28.2687271 96.3840797,27.9045315 102,26.6724921 C101.756465,26.3151446 101.56062,25.9248016 101.432177,25.4995955 Z" id="Path"></path>
                <path d="M189.705317,11.8501037 C185.914386,7.40949209 177.165442,2.27275428 165.426856,1.15870282 C138.665871,-1.37754198 127.452311,12.5537151 111,20.604078 C111.640135,21.0687859 112.115281,21.6601189 112.367882,22.3500075 C112.422239,22.5153062 112.463167,22.6812288 112.490025,22.8546366 C129.377833,16.0181282 138.965155,3.11546621 159.698252,2.03385074 L161.114095,2.03385074 C175.7221,1.92781001 186.214949,8.77679376 189.263426,12.2349692 C191.202377,14.4312599 193,16.542718 193,16.542718 C193,16.542718 192.154586,14.730669 189.705317,11.8501037 Z" id="Path"></path>
                <path d="M79.4409917,43.343105 C79.4849917,43.355105 79.5159917,43.366105 79.5589917,43.366105 C79.5599917,43.367105 79.5159917,43.356105 79.4409917,43.343105 Z" id="Path"></path>
                <path d="M154.376088,58.6554508 C145.627273,49.5876786 147.305433,40.5936025 147.305433,40.5936025 C147.305433,40.5936025 175.803627,26.5132342 164.586219,21.003032 C164.586219,21.003032 165.918445,26.6461392 147.358849,36.2965517 C147.176344,36.3765467 146.974125,36.4773277 146.758553,36.6114924 C146.567781,36.7053447 146.37828,36.7991971 146.18878,36.8993482 C146.141087,36.9201343 146.09403,36.9465893 146.040613,36.9730443 C152.799674,26.5107147 161.886156,12.5304976 165.55407,6.85463659 L159.376229,6.85463659 C154.241276,14.7489398 145.371003,27.8983434 138.854859,37.3289273 C138.720046,37.4763195 138.517192,37.7648052 138.218951,38.2535932 C137.908629,38.7089974 137.602757,39.1455052 137.298157,39.5801233 C134.996808,42.4882856 133.908135,42.0530376 133.908135,42.0530376 C135.350373,42.6161516 134.13261,43.882843 133.578099,44.881205 C132.189913,46.8187201 131.222697,48.1112367 130.878671,48.4879057 C127.872737,51.6373126 125.505253,53.5672691 123.469078,54.5454749 C122.779118,54.8465582 121.36486,55.2761373 120.978864,53.9363796 C120.959151,53.7486749 120.950884,53.5332555 120.971233,53.2983098 C121.080609,51.911311 122.64367,49.5725614 124.586367,46.9383975 C124.741528,46.7777778 124.937388,46.5296045 125.181576,46.155455 C125.215915,46.1019151 125.249618,46.0603429 125.283322,46.006803 C125.601275,45.5854123 125.925588,45.1558332 126.249901,44.7205852 C128.010093,42.6489054 129.411633,42.3944333 129.411633,42.3944333 C128.598943,42.0996488 129.07333,41.0005058 129.558528,40.1822899 C129.735946,39.9278179 129.903825,39.6733458 130.066618,39.4182438 C130.13466,39.3313202 130.182353,39.2784102 130.182353,39.2784102 L130.16264,39.2784102 C131.419829,37.3345962 132.32091,35.5778571 132.422019,34.2651843 C132.502143,33.2189513 132.307556,32.3012142 131.860513,31.5711817 C131.860513,31.5636231 131.854789,31.5636231 131.854789,31.5579542 C129.120387,27.0738287 123.903402,30.4310964 123.2605,30.7202119 C121.900294,31.3293072 120.519103,32.2816879 119.167799,33.4135847 L121.231319,30.5451049 L114.728529,30.7661933 C113.436365,32.8844843 111.879664,35.3038587 110.20214,37.8838528 C110.053973,38.0514012 109.870832,38.3197307 109.62728,38.7146663 C106.960284,43.0646271 105.303109,42.3938034 105.303109,42.3938034 C106.933576,43.1515507 104.402664,46.1069541 104.064997,46.4892921 C100.905173,49.8471897 97.4267588,52.9896679 94.6669204,54.4648501 C94.6605613,54.4648501 94.6605613,54.4648501 94.6605613,54.4648501 C92.8005319,55.1010302 92.9417034,53.6201791 92.9493343,53.3990908 C93.0644335,52.1254706 94.071711,50.2559827 96.339357,46.8319476 C96.4881594,46.6568406 96.6573107,46.4281936 96.8677961,46.1132529 C99.0858414,42.7087441 100.175787,43.0236848 100.175787,43.0236848 C99.3033217,42.6816592 100.032708,41.5768473 100.377369,40.9331085 C102.32579,38.1320261 104.714894,34.7268874 107.611453,30.5457348 L101.189423,30.5457348 C101.189423,30.5457348 95.2964688,40.6521814 92.0215453,40.3914105 C90.4648438,40.2704733 90.4985469,38.7619074 90.6339952,37.0398118 C90.8508396,34.1921181 92.7254948,31.7859712 94.3419716,30.1104868 C93.56998,30.0367906 89.5643988,29.949867 89.5046235,29.949867 C89.4086015,29.949867 83.157631,34.8226293 81.1545225,36.6713312 L81.1208194,36.6114924 C81.1545225,36.5579525 81.1888615,36.5176401 81.2219286,36.4641002 C84.5648942,31.2631697 82.3112381,30.2906328 79.1520498,30.6465158 C79.1520498,30.6465158 79.0846436,30.6194309 79.0642946,30.6528146 C75.8097201,31.0414514 71.6477057,32.8051193 71.6477057,32.8051193 C71.6477057,32.8051193 78.1231515,31.5787403 74.7674678,37.2218475 C74.3344148,37.8851126 73.91408,38.5483776 73.4822988,39.2116427 C70.9984442,42.0870512 70.4922619,42.2545996 69.7736864,42.2010597 C71.8639143,42.550014 70.0166031,44.2179399 69.4620917,45.465105 C67.2828368,48.863315 65.1379209,52.2482975 63,55.6313904 L69.4881639,55.6313904 C69.4881639,55.6313904 74.9016443,47.5096999 75.0154717,47.3018391 C77.4109352,43.1187969 79.3657147,43.1597392 79.7517106,43.2120193 C77.7823051,42.858026 79.3460016,41.5976334 79.968555,40.840516 C82.1204659,38.5483776 83.7369427,37.1078389 85.9702497,35.1841812 C85.9085667,35.4858944 85.8615096,35.7939064 85.8411605,36.0899506 C85.1842681,45.9016128 93.4326239,41.3841036 93.9744171,41.2165551 C93.92736,41.2902513 93.8866619,41.3576486 93.8396047,41.424416 C91.7156738,44.2595121 90.9036199,43.7436392 90.9036199,43.7436392 C91.8097881,44.158731 91.0517864,45.3989675 90.5723121,46.4918116 C90.1666032,47.174603 89.8143104,47.8038545 89.5103467,48.3940534 C89.5103467,48.401612 89.5039876,48.4079108 89.5039876,48.4079108 C88.6715847,50.0569402 88.2385317,51.3903991 88.1304274,52.7169293 C88.0293181,54.051018 88.5774704,55.383847 89.8766294,55.9419219 L89.8696344,55.9475908 C89.8696344,55.9475908 89.9573896,55.9885331 90.126541,56.0414431 C90.1329001,56.0414431 90.1329001,56.0414431 90.1329001,56.0414431 C91.3042416,56.3759101 92.6498218,56.6971496 95.0516444,55.994202 C95.2074417,55.9551494 95.363239,55.9091681 95.5190364,55.8543684 C95.5260314,55.8461799 95.5330263,55.8461799 95.5457445,55.8411409 C95.7358808,55.7737436 95.9253812,55.7000474 96.1206048,55.6187927 C96.1415898,55.6124939 96.1682979,55.6055652 96.1886469,55.5923377 C96.2357041,55.5734413 96.2687713,55.558954 96.3094694,55.5394277 C96.3164643,55.5394277 96.3240952,55.5312392 96.3240952,55.5312392 C96.6216999,55.4046331 96.8449035,55.2975532 97.0076958,55.2093698 C98.0766562,54.6544444 100.058144,53.0658835 101.22249,52.1739715 C100.660348,53.0589548 99.267075,54.7671931 98.7386359,55.6313904 L105.031576,55.6313904 C106.41849,52.8907765 109.423153,48.3064999 112.927639,43.8223744 C114.334903,42.4486031 115.323103,42.3950632 115.323103,42.3950632 C114.639502,42.1468899 115.031857,41.3305637 115.566655,40.5929726 C118.793886,36.8199832 122.204258,33.4753131 125.059482,31.866596 C125.268696,31.7664449 126.033692,31.3708794 126.18949,31.3034821 C128.212311,30.7737519 127.859383,32.8051193 127.420607,33.7757665 C126.460386,35.9677537 124.32946,38.6346714 122.176914,41.3891426 C120.600499,42.709374 119.504194,42.3950632 119.504194,42.3950632 C120.498118,43.2598903 118.502004,46.389141 118.502004,46.389141 L118.509635,46.389141 C117.250538,48.332325 116.343734,50.196144 116.222276,51.8388746 C116.06012,53.9017361 117.013981,55.3693597 118.603749,55.9463311 C118.603749,55.9463311 118.671792,55.973416 118.786891,56.0005009 C118.874646,56.0338846 118.969396,56.0540408 119.064146,56.0798659 C119.978581,56.3072531 122.136851,56.6763636 124.491617,55.8720051 C124.538674,55.8587775 124.585731,55.84555 124.63406,55.8260237 C124.653137,55.819095 124.667127,55.819095 124.68684,55.8058675 C124.741528,55.7876009 124.795581,55.7724838 124.848997,55.744769 C124.957737,55.7050865 125.066477,55.665404 125.174581,55.6181629 C125.207649,55.6043055 125.235629,55.5904481 125.262337,55.5835194 C126.621907,55.001509 128.035529,54.0491284 129.4695,52.8492043 C128.868568,53.7807989 128.266364,54.7048349 127.671154,55.6301306 L134.221001,55.6301306 C134.856273,54.417609 136.493734,51.7834451 141.425833,44.116529 C141.825819,46.4754347 141.10152,44.0623592 142.523409,49.431468 C145.582124,60.985382 156.93498,66.8092652 164.506095,62.3591533 C168.754592,59.8522254 167.936815,55.6295007 167.936815,55.6295007 C168.023935,56.7733653 163.117909,67.7307817 154.376088,58.6554508 Z" id="Path"></path>
                <path d="M187.721709,29.8136656 C187.617392,29.8726419 187.51242,29.934128 187.385796,30.0069074 C187.309691,30.0533356 187.225057,30.0934897 187.148296,30.139918 C187.135174,30.1474469 187.120741,30.1474469 187.106963,30.1606224 C186.826817,30.3011619 186.540767,30.4209969 186.248155,30.5345579 C184.11065,31.2014931 182.757159,29.7998626 182.694832,29.7339847 C181.835368,28.7721675 181.557191,27.3297554 181.689063,25.6282237 C182.044657,21.1610754 185.02588,16.3952807 189.059454,12.8102688 C188.480792,12.1891344 187.544568,11.3885612 186.895705,10.8546366 C181.024455,14.8198581 176.425341,20.5204914 176.02054,25.5410139 C175.727929,29.2791135 178.610084,32.5102671 181.576873,32.8239714 C188.474232,33.4043242 192,25.5548169 192,25.5548169 C191.03622,27.0499313 189.535767,28.7257393 187.721709,29.8136656 Z" id="Path"></path>
                <path d="M207,67.5081353 C200.547094,71.1752876 197,65.8546366 197,65.8546366 C198.697395,73.7479175 205.756179,71.7443054 207,71.3044882 L207,67.5081353 Z" id="Path"></path>
                <path d="M251.765413,29.3716215 C247.208751,26.7693693 238.07564,33.3564192 238.07564,33.3564192 L240.825978,29.7967764 L234.251721,29.7967764 C234.251721,29.7967764 233.572594,31.3871473 229.116779,38.2308107 C227.066632,41.0687673 224.90734,41.2303388 224.390974,41.1631757 C227.602147,41.5408096 224.629051,44.7031765 224.629051,44.7031765 C219.283478,51.8097897 198.610951,66.1826869 210.046328,45.2696273 C212.316042,41.1232581 214.657882,41.7777812 214.657882,41.7777812 C212.316042,41.2651876 214.809154,38.1370359 214.809154,38.1370359 L214.801494,38.1370359 C219.854736,30.3708306 227.128545,19.9352101 235.779757,6.18135365 L227.921286,6.18135365 C218.869236,20.3122103 212.247747,31.0107806 207.623427,37.6928725 C204.695649,41.3729019 203.386542,41.2525153 202.686352,41.1714127 C205.824123,41.5953004 203.12038,43.9890936 202.244026,45.5186375 C199.859421,48.525769 197.347162,50.8175504 194.622994,53.0149233 C190.502913,56.3394953 181.876595,57.6542441 188.524892,45.7011183 C190.447383,42.2428538 193.44984,41.7777812 193.44984,41.7777812 C191.12651,41.4812499 193.713449,38.4677823 193.904294,38.171251 C200.673863,28.1867636 209.428476,16.7259558 209.891865,10.6844475 C210.191217,6.87579445 206.726009,5.18341179 203.094211,4.89321664 C201.979779,4.80641154 200.893431,4.89321664 200.818752,4.89321664 C197.565453,4.89321664 193.484307,6.19529315 188.777011,8.87864792 C189.211678,9.51226179 189.911869,10.1522118 190.351642,10.7864593 C193.73515,8.46743251 197.714171,6.44493702 200.580037,6.13509983 C202.284875,5.99317033 203.711425,6.99871555 203.56143,9.00030178 C203.297822,12.4858117 200.131328,17.851254 196.172093,23.7508328 C192.831988,28.7399085 188.912965,34.1059844 185.693494,39.047539 C184.138012,41.1587405 183.229105,41.2385758 182.597848,41.1916884 C184.418215,41.5015256 183.248253,42.7548138 182.657846,43.9700852 C178.652018,51.2775541 180.187075,54.3385427 180.838118,55.511362 C183.553988,60.3661115 192.654546,61.0066951 201.965737,50.6109923 C201.965737,50.6109923 201.951695,51.5544433 201.903824,52.2691598 C201.374054,60.0619768 211.133953,60.8178782 218.631159,54.2365309 C216.307191,58.2758193 214.161302,61.2557054 212.200514,63.4271001 L212.200514,68.8546366 C221.382772,62.5900962 230.346101,46.0394681 230.455885,45.8785302 C233.232392,41.083974 235.759332,41.2670884 235.759332,41.2670884 C233.333878,40.363555 235.569763,38.387947 236.220806,37.620007 C237.416938,36.2716766 238.863275,35.503103 240.025578,34.5659881 C240.425778,34.262487 247.14237,29.733415 247.712352,31.8091341 C247.759585,32.0245628 247.793413,32.2742067 247.813838,32.5434926 C247.820221,32.6847885 247.820221,32.8121449 247.833625,32.9407685 C247.847667,33.3114326 247.833625,33.7296178 247.792775,34.2010265 C247.746181,34.8276706 247.711714,35.5088055 247.479381,36.162695 C245.777095,40.9027604 243.772266,41.1587405 243.772266,41.1587405 C244.695215,41.4755474 244.362672,42.7902962 243.853965,43.9567793 C243.534827,44.6036991 243.188242,45.2379466 242.841657,45.8443151 C242.828254,45.8645907 242.814212,45.8842327 242.814212,45.8842327 L242.822509,45.8842327 C242.209763,46.9366654 241.579145,47.9143316 240.967675,48.7494347 C240.961931,48.7627406 240.95491,48.7703439 240.947888,48.7830162 C239.304324,51.2845238 238.348185,52.0195159 238.348185,52.0195159 C237.228008,53.1720595 235.202754,55.2141971 233.464086,55.8763236 C230.855447,56.8603259 229.404004,56.779857 228.874234,55.942853 C226.924296,52.8419467 232.126895,50.9347689 232.126895,50.9347689 C227.903414,51.4670046 226.171129,52.9369888 226.076664,55.5265687 C226.055601,56.3274566 226.897489,61.1011036 236.28974,57.1365816 C236.304421,57.1226421 237.228646,56.6645392 237.662675,56.4091928 C237.885434,56.2742331 238.069258,56.1715876 238.19819,56.07908 C240.459606,54.6572505 241.600846,53.6320632 243.82269,51.4676382 C243.82269,51.4676382 246.85706,48.5016917 249.194432,45.1986625 C249.35081,44.9826002 249.493146,44.753232 249.634843,44.5301999 C251.646055,41.0979135 253.1192,41.3082733 253.1192,41.3082733 C251.522868,40.836231 253.11154,38.699685 253.547484,36.9870267 C253.642587,36.6163626 253.879388,35.550624 253.961087,34.4994586 C254.177463,31.6507306 253.497698,30.5583803 251.765413,29.3716215 Z" id="Path"></path>
                <polygon id="Path" points="45.8521534 87.2722797 58 87.2722797 58 89.8546366 43 89.8546366 43 64.8546366 45.8515106 64.8546366"></polygon>
                <path d="M87,77.8877347 C87,85.1201491 81.1146598,90.8546366 74.002816,90.8546366 C66.8915979,90.8546366 61,85.1195186 61,77.8877347 C61,70.6899946 66.8922236,64.8546366 74.002816,64.8546366 C81.1134083,64.8546366 87,70.6899946 87,77.8877347 Z M63.7827866,77.8536909 C63.7827866,83.5213518 68.3433777,88.2502866 74.0021902,88.2502866 C79.6622542,88.2502866 84.2234711,83.5213518 84.2234711,77.8536909 C84.2234711,72.1513559 79.7223279,67.4570953 74.002816,67.4570953 C68.2839298,67.4570953 63.7827866,72.1513559 63.7827866,77.8536909 Z" id="Shape"></path>
                <path d="M181,77.8877347 C181,85.1201491 175.113692,90.8546366 168.002816,90.8546366 C160.886308,90.8546366 155,85.1195186 155,77.8877347 C155,70.6899946 160.886308,64.8546366 168.002816,64.8546366 C175.114317,64.8546366 181,70.6899946 181,77.8877347 Z M157.783278,77.8536909 C157.783278,83.5213518 162.34365,88.2502866 168.002816,88.2502866 C173.65635,88.2502866 178.222353,83.5213518 178.222353,77.8536909 C178.222353,72.1513559 173.722052,67.4570953 168.002816,67.4570953 C162.277322,67.4570953 157.783278,72.1513559 157.783278,77.8536909 Z" id="Shape"></path>
                <polygon id="Path" points="95 63.8546366 115.12759 84.8854807 115.12759 64.9469383 118 64.9469383 118 91.8546366 97.8788843 70.8509224 97.8788843 90.6932183 95 90.6932183"></polygon>
                <path d="M126.001259,64.8546366 L134.064485,64.8546366 C137.820736,64.8546366 140.881501,65.3488912 143.841563,67.8709696 C146.701551,70.3271892 148,73.6778339 148,77.3885068 C148,81.0333209 146.668192,84.249112 143.908909,86.7059588 C140.91486,89.3541097 137.92144,89.8546366 133.99651,89.8546366 L126,89.8546366 L126.001259,64.8546366 Z M134.157636,87.2717172 C137.217772,87.2717172 139.783201,86.8383036 142.079876,84.6818984 C144.141786,82.7607031 145.209246,80.1388957 145.209246,77.3546366 C145.209246,74.4976192 144.109687,71.749112 141.945814,69.8611597 C139.649768,67.8370993 137.123992,67.4444554 134.157636,67.4444554 L128.793271,67.4444554 L128.793271,87.2717172 L134.157636,87.2717172 Z" id="Shape"></path>
                <path d="M35,88.8141236 C35,89.9214834 34.1068289,90.8546366 33,90.8546366 C31.8931711,90.8546366 31,89.9208082 31,88.8141236 C31,87.7439009 31.8924949,86.854637 33,86.8546366 C34.1075051,86.8539618 35,87.7439009 35,88.8141236 Z" id="Path"></path>
                <polygon id="Path" points="188 63.8546366 208.126133 84.8854807 208.126133 63.8546366 211 63.8546366 211 91.8546366 190.873219 70.8509224 190.873219 90.6925723 188 90.6925723"></polygon>
            </g>
        </g>
    </g>
</svg>