<?xml version="1.0" encoding="UTF-8"?>
<svg width="23px" height="23px" viewBox="0 0 23 23" version="1.1" xmlns="http://www.w3.org/2000/svg" xmlns:xlink="http://www.w3.org/1999/xlink">
    <!-- Generator: Sketch 54.1 (76490) - https://sketchapp.com -->
    <title>Fill 9</title>
    <desc>Created with Sketch.</desc>
    <g id="Page-1" stroke="none" stroke-width="1" fill="none" fill-rule="evenodd">
        <g id="Homepage" transform="translate(-458.000000, -6766.000000)" fill="#F35A2D">
            <g id="Group-9" transform="translate(175.000000, 6760.000000)">
                <g id="youtube-copy-4" transform="translate(276.000000, 0.000000)">
                    <path d="M26.1036562,11.3029375 C25.8966562,11.58325 24.2507187,13.6935 20.618875,15.1762813 C20.8474375,15.6434688 21.0666562,16.12 21.2700625,16.5986875 C21.3426563,16.7683125 21.4130937,16.9372188 21.4820937,17.1054063 C24.75025,16.695 27.9982812,17.353375 28.3217188,17.4216563 C28.3001563,15.1036875 27.4714375,12.97475 26.1036562,11.3029375 M16.1985625,7.9650625 C16.4695313,8.32875 18.2541875,10.758125 19.8634688,13.7150625 C23.3565938,12.4062188 24.8350625,10.418875 25.011875,10.1673125 C23.2768125,8.62775 20.9962188,7.6919375 18.5,7.6919375 C17.7079375,7.6919375 16.9367188,7.7868125 16.1985625,7.9650625 M8.88528125,15.5025938 C9.3244375,15.5083438 13.371,15.5263125 17.9659687,14.305875 C16.3387187,11.4129063 14.5828125,8.9799375 14.3240625,8.624875 C11.5762813,9.9215 9.52209375,12.454375 8.88528125,15.5025938 M11.2025313,24.0823125 C11.4253438,23.701375 14.1206563,19.2379375 19.187125,17.600625 C19.3150625,17.5589375 19.4444375,17.520125 19.5738125,17.4834688 C19.3272812,16.9257188 19.0591875,16.36725 18.7774375,15.8166875 C13.8719688,17.284375 9.11240625,17.2232812 8.68259375,17.2146563 C8.67971875,17.3145625 8.6775625,17.4144688 8.6775625,17.514375 C8.6775625,20.0371875 9.6335,22.3407812 11.2025313,24.0823125 M22.3374062,26.5569687 C22.1907812,25.6951875 21.6208125,22.6915313 20.2415312,19.1078438 C20.2199687,19.1150313 20.1984062,19.1222188 20.1768437,19.1294063 C14.6367187,21.0599688 12.6479375,24.9024063 12.471125,25.2639375 C14.1364687,26.5627187 16.2294687,27.3375312 18.5,27.3375312 C19.8605937,27.3375312 21.1579375,27.059375 22.3374062,26.5569687 M28.1988125,19.0740625 C27.8624375,18.9676875 25.1585,18.16125 22.0800937,18.6535938 C23.3652187,22.1840938 23.88775,25.0598125 23.988375,25.6570938 C26.1920625,24.167125 27.7610938,21.80675 28.1988125,19.0740625 M18.5,29 C12.1591875,29 7,23.8408125 7,17.5 C7,11.1584687 12.1591875,6 18.5,6 C24.8415312,6 30,11.1584687 30,17.5 C30,23.8408125 24.8415312,29 18.5,29" id="Fill-9"></path>
                </g>
            </g>
        </g>
    </g>
</svg>