<?xml version="1.0" encoding="UTF-8"?>
<svg width="241px" height="63px" viewBox="0 0 241 63" version="1.1" xmlns="http://www.w3.org/2000/svg" xmlns:xlink="http://www.w3.org/1999/xlink">
    <!-- Generator: Sketch 54.1 (76490) - https://sketchapp.com -->
    <title>Logo/Default</title>
    <desc>Created with Sketch.</desc>
    <g id="Page-1" stroke="none" stroke-width="1" fill="none" fill-rule="evenodd">
        <g id="Homepage" transform="translate(-175.000000, -6667.000000)">
            <g id="Logo/Default" transform="translate(175.000000, 6667.000000)">
                <g id="new-logo-copy">
                    <g id="Group" fill-rule="nonzero">
                        <path d="M71.613,31.618 L71.613,34.369 L71.613,39.392 L66.788,39.392 L66.834,26.827 C66.805,25.869 66.947,25.008 67.263,24.246 C67.396,23.925 67.579,23.613 67.801,23.306 C68.021,22.997 68.308,22.723 68.654,22.478 C69,22.232 69.42,22.04 69.899,21.895 C70.382,21.745 70.956,21.673 71.614,21.673 L71.614,23.314 L71.613,31.618 L71.613,31.618 Z M66.833,18.135 L66.833,15.313 L66.833,13.665 C67.503,13.665 68.086,13.748 68.585,13.898 C69.076,14.052 69.497,14.26 69.847,14.509 C70.201,14.768 70.488,15.051 70.717,15.375 C70.938,15.692 71.117,16.017 71.254,16.349 C71.383,16.683 71.483,17.003 71.537,17.316 C71.591,17.629 71.633,17.902 71.653,18.135 L66.833,18.135 L66.833,18.135 Z" id="Shape" fill="#054371"></path>
                        <path d="M126.043,30.373 C126.035,29.304 125.897,28.351 125.622,27.53 C125.336,26.685 124.956,25.948 124.49,25.323 C124.027,24.699 123.5,24.175 122.904,23.751 C122.335,23.343 121.756,23.014 121.164,22.747 C121.135,22.739 121.105,22.719 121.077,22.701 C120.415,22.41 119.703,22.189 118.958,22.014 L118.945,22.01 C118.853,21.977 118.758,21.964 118.662,21.935 C118.384,21.856 118.104,21.773 117.826,21.723 C117.464,21.66 117.113,21.627 116.794,21.627 L116.115,21.627 L112.252,21.627 C111.353,21.66 110.503,21.768 109.701,21.935 C109.605,21.964 109.513,21.977 109.413,22.01 L109.405,22.014 C108.66,22.189 107.948,22.41 107.286,22.701 C107.253,22.719 107.228,22.739 107.199,22.747 C106.608,23.014 106.029,23.343 105.463,23.751 C104.868,24.175 104.335,24.699 103.873,25.323 C103.406,25.948 103.027,26.685 102.74,27.53 C102.466,28.35 102.328,29.303 102.32,30.373 C102.32,30.411 102.316,30.44 102.316,30.477 L102.316,39.418 L102.316,39.598 C102.903,39.631 103.436,39.551 103.943,39.418 C104.217,39.342 104.501,39.281 104.751,39.156 C105.059,39.015 105.355,38.818 105.654,38.572 C105.946,38.322 106.208,38.01 106.437,37.633 C106.666,37.256 106.849,36.799 106.991,36.266 C107.128,35.739 107.199,35.114 107.199,34.389 L107.199,29.491 C107.262,29.311 107.357,29.108 107.482,28.874 C107.603,28.642 107.774,28.409 108.003,28.171 C108.236,27.935 108.524,27.706 108.878,27.484 C109.232,27.259 109.656,27.072 110.168,26.905 C110.684,26.747 111.284,26.623 111.975,26.544 C112.445,26.485 112.987,26.474 113.561,26.474 L113.577,26.474 C113.657,26.474 113.727,26.47 113.803,26.47 C113.866,26.47 113.928,26.47 113.983,26.474 C114.053,26.47 114.116,26.474 114.186,26.474 C114.253,26.474 114.316,26.47 114.39,26.474 C114.445,26.47 114.498,26.47 114.565,26.47 C114.64,26.47 114.711,26.474 114.786,26.474 L114.811,26.474 C115.376,26.474 115.921,26.486 116.393,26.544 C117.083,26.623 117.687,26.747 118.195,26.905 C118.712,27.072 119.14,27.259 119.494,27.484 C119.844,27.706 120.135,27.934 120.363,28.171 C120.592,28.409 120.767,28.642 120.884,28.874 C121.009,29.108 121.101,29.312 121.166,29.491 L121.166,34.389 C121.166,35.114 121.237,35.739 121.375,36.266 C121.517,36.799 121.699,37.254 121.928,37.633 C122.157,38.012 122.419,38.322 122.715,38.572 C123.007,38.818 123.306,39.015 123.619,39.156 C123.868,39.281 124.147,39.342 124.422,39.418 C124.931,39.551 125.467,39.631 126.054,39.598 L126.054,39.418 L126.054,30.477 C126.052,30.44 126.043,30.411 126.043,30.373 Z" id="Shape" fill="#054371"></path>
                        <path d="M99.074,30.373 C99.065,29.304 98.928,28.351 98.649,27.53 C98.362,26.685 97.987,25.948 97.521,25.323 C97.055,24.699 96.526,24.175 95.931,23.751 C95.365,23.343 94.782,23.014 94.191,22.747 C94.162,22.739 94.136,22.719 94.108,22.701 C93.446,22.41 92.734,22.189 91.989,22.014 L91.977,22.01 C91.881,21.977 91.781,21.964 91.689,21.935 C91.41,21.856 91.131,21.773 90.861,21.723 C90.49,21.66 90.145,21.627 89.82,21.627 L89.142,21.627 L85.279,21.627 C84.384,21.66 83.534,21.768 82.731,21.935 C82.635,21.964 82.54,21.977 82.444,22.01 L82.435,22.014 C81.69,22.189 80.974,22.41 80.316,22.701 C80.283,22.719 80.257,22.739 80.229,22.747 C79.634,23.014 79.056,23.343 78.489,23.751 C77.894,24.175 77.365,24.699 76.899,25.323 C76.433,25.948 76.054,26.685 75.771,27.53 C75.492,28.35 75.354,29.303 75.351,30.373 C75.351,30.411 75.338,30.44 75.338,30.477 L75.338,39.418 L75.338,39.598 C75.933,39.631 76.463,39.551 76.97,39.418 C77.249,39.342 77.528,39.281 77.778,39.156 C78.086,39.015 78.386,38.818 78.681,38.572 C78.976,38.322 79.235,38.01 79.464,37.633 C79.693,37.254 79.876,36.799 80.022,36.266 C80.159,35.739 80.23,35.114 80.23,34.389 L80.23,29.491 C80.293,29.311 80.384,29.108 80.509,28.874 C80.63,28.642 80.804,28.409 81.033,28.171 C81.262,27.935 81.554,27.706 81.903,27.484 C82.257,27.259 82.686,27.072 83.198,26.905 C83.71,26.747 84.309,26.623 85,26.544 C85.47,26.485 86.016,26.474 86.586,26.474 L86.607,26.474 C86.682,26.474 86.756,26.47 86.828,26.47 C86.894,26.47 86.953,26.47 87.007,26.474 C87.082,26.47 87.14,26.474 87.211,26.474 C87.286,26.474 87.344,26.47 87.415,26.474 C87.469,26.47 87.523,26.47 87.594,26.47 C87.665,26.47 87.74,26.474 87.81,26.474 L87.827,26.474 C88.41,26.474 88.951,26.486 89.417,26.544 C90.107,26.623 90.711,26.747 91.228,26.905 C91.74,27.072 92.168,27.259 92.518,27.484 C92.868,27.706 93.159,27.934 93.388,28.171 C93.617,28.409 93.792,28.642 93.913,28.874 C94.038,29.108 94.129,29.312 94.192,29.491 L94.192,34.389 C94.192,35.114 94.262,35.739 94.404,36.266 C94.545,36.799 94.728,37.254 94.957,37.633 C95.186,38.012 95.444,38.322 95.74,38.572 C96.036,38.818 96.335,39.015 96.643,39.156 C96.893,39.281 97.172,39.342 97.446,39.418 C97.958,39.551 98.491,39.631 99.082,39.598 L99.082,39.418 L99.082,30.477 C99.082,30.44 99.074,30.411 99.074,30.373 Z" id="Shape" fill="#054371"></path>
                        <path d="M138.874,39.386 C137.014,39.311 135.355,38.948 133.895,38.3 C133.272,38.021 132.665,37.665 132.069,37.237 C131.473,36.817 130.94,36.292 130.469,35.665 C130.003,35.036 129.623,34.299 129.346,33.45 C129.063,32.6 128.92,31.618 128.92,30.499 L128.92,30.585 C128.92,29.466 129.063,28.483 129.346,27.639 C129.623,26.79 130.003,26.048 130.469,25.42 C130.94,24.787 131.473,24.259 132.069,23.838 C132.665,23.409 133.272,23.056 133.895,22.78 C135.356,22.128 137.014,21.76 138.874,21.681 L142.441,21.681 C144.3,21.76 145.965,22.127 147.426,22.78 C148.051,23.055 148.662,23.409 149.253,23.838 C149.857,24.259 150.386,24.787 150.857,25.42 C151.328,26.048 151.707,26.79 151.995,27.639 C152.281,28.484 152.424,29.466 152.424,30.585 L152.424,30.499 C152.424,31.618 152.281,32.601 151.995,33.45 C151.707,34.299 151.328,35.036 150.857,35.665 C150.386,36.292 149.859,36.817 149.253,37.237 C148.662,37.665 148.051,38.02 147.426,38.3 C145.965,38.948 144.3,39.311 142.441,39.386 L138.874,39.386 Z M139.693,26.281 C138.547,26.31 137.529,26.477 136.632,26.785 C136.25,26.915 135.879,27.081 135.508,27.28 C135.142,27.488 134.821,27.738 134.533,28.042 C134.251,28.338 134.018,28.696 133.843,29.104 C133.664,29.512 133.58,29.982 133.58,30.523 L133.58,30.5 C133.58,31.036 133.664,31.511 133.843,31.919 C134.019,32.326 134.251,32.681 134.533,32.984 C134.821,33.284 135.141,33.534 135.508,33.738 C135.879,33.941 136.25,34.113 136.632,34.242 C137.528,34.545 138.547,34.72 139.693,34.769 L141.65,34.769 C142.786,34.719 143.8,34.544 144.702,34.242 C145.08,34.113 145.45,33.941 145.82,33.738 C146.185,33.534 146.51,33.284 146.802,32.984 C147.089,32.68 147.323,32.326 147.496,31.919 C147.671,31.511 147.759,31.036 147.759,30.5 L147.759,30.523 C147.759,29.982 147.671,29.512 147.496,29.104 C147.322,28.697 147.089,28.338 146.802,28.042 C146.51,27.738 146.185,27.488 145.82,27.28 C145.45,27.081 145.08,26.915 144.702,26.785 C143.802,26.477 142.786,26.31 141.65,26.281 L139.693,26.281 L139.693,26.281 Z" id="Shape" fill="#054371"></path>
                        <path d="M163.954,39.436 L153.918,21.654 L159.482,21.654 L166.086,33.925 C166.951,32.26 167.738,30.749 168.449,29.397 C168.745,28.814 169.053,28.248 169.351,27.678 C169.652,27.112 169.921,26.595 170.175,26.129 C170.429,25.658 170.642,25.258 170.821,24.934 C171.005,24.605 171.125,24.393 171.186,24.293 C171.528,23.701 171.889,23.215 172.264,22.832 C172.643,22.453 173.022,22.157 173.401,21.953 C173.793,21.745 174.168,21.603 174.549,21.533 C174.928,21.462 175.285,21.432 175.627,21.458 C176.44,21.5 177.243,21.75 178.042,22.207 L168.307,39.436 L163.954,39.436 L163.954,39.436 Z" id="Shape" fill="#054371"></path>
                        <path d="M185.016,31.618 L185.016,34.369 L185.016,39.392 L180.188,39.392 L180.235,26.827 C180.206,25.869 180.346,25.008 180.664,24.246 C180.797,23.925 180.977,23.613 181.2,23.306 C181.421,22.997 181.705,22.723 182.05,22.478 C182.404,22.232 182.821,22.04 183.304,21.895 C183.783,21.745 184.353,21.673 185.019,21.673 L185.019,23.314 L185.019,31.618 L185.016,31.618 L185.016,31.618 Z M180.234,18.135 L180.234,15.313 L180.234,13.665 C180.904,13.665 181.491,13.748 181.982,13.898 C182.476,14.052 182.902,14.26 183.248,14.509 C183.605,14.768 183.889,15.051 184.113,15.375 C184.339,15.692 184.517,16.017 184.65,16.349 C184.779,16.683 184.876,17.003 184.937,17.316 C184.992,17.629 185.034,17.902 185.054,18.135 L180.234,18.135 L180.234,18.135 Z" id="Shape" fill="#054371"></path>
                        <path d="M197.042,21.606 C197.245,21.62 197.505,21.653 197.805,21.698 C198.104,21.749 198.42,21.827 198.753,21.952 C199.086,22.073 199.42,22.243 199.743,22.46 C200.068,22.681 200.359,22.964 200.622,23.314 C200.885,23.664 201.096,24.092 201.264,24.596 C201.417,25.095 201.501,25.695 201.501,26.386 L197.042,26.386 L197.042,39.608 L192.4,39.608 L192.4,26.386 C192.171,26.365 191.909,26.323 191.609,26.265 C191.31,26.202 190.997,26.107 190.681,25.974 C190.365,25.84 190.046,25.665 189.74,25.445 C189.435,25.224 189.162,24.937 188.924,24.588 C188.68,24.242 188.485,23.826 188.338,23.344 C188.188,22.862 188.117,22.29 188.117,21.629 L192.4,21.629 L192.4,17.691 C192.4,15.359 193.07,13.449 194.407,11.951 C195.193,11.088 196.109,10.447 197.163,10.019 C198.221,9.589 199.443,9.369 200.839,9.369 C201.184,9.369 201.51,9.398 201.824,9.453 C202.144,9.507 202.482,9.56 202.841,9.619 C203.178,9.66 203.473,9.723 203.753,9.803 C204.031,9.881 204.303,9.977 204.553,10.09 L202.596,14.173 C202.438,14.123 202.272,14.069 202.106,14.016 C201.93,13.957 201.754,13.907 201.585,13.866 C201.411,13.829 201.224,13.796 201.026,13.766 C200.839,13.737 200.635,13.724 200.428,13.724 C199.964,13.724 199.535,13.807 199.16,13.978 C198.786,14.145 198.453,14.389 198.161,14.71 C198.015,14.881 197.879,15.072 197.742,15.281 C197.607,15.488 197.487,15.709 197.38,15.942 C197.276,16.175 197.192,16.412 197.129,16.662 C197.071,16.908 197.042,17.154 197.042,17.395 L197.042,21.606 L197.042,21.606 Z" id="Shape" fill="#054371"></path>
                        <path d="M222.143,48.693 L222.143,38.669 C221.589,38.859 221.1,39.003 220.684,39.104 C220.276,39.2 219.921,39.27 219.641,39.311 C219.313,39.362 219.036,39.391 218.805,39.395 L214.194,39.395 C213.934,39.374 213.593,39.335 213.194,39.288 C212.787,39.233 212.344,39.142 211.854,39.026 C211.372,38.909 210.854,38.751 210.327,38.552 C209.795,38.353 209.264,38.105 208.753,37.796 C208.242,37.487 207.746,37.116 207.278,36.689 C206.805,36.259 206.397,35.753 206.039,35.169 C205.69,34.581 205.403,33.916 205.198,33.167 C204.994,32.413 204.883,31.563 204.883,30.606 L204.883,26.614 C204.883,25.885 204.957,25.261 205.094,24.728 C205.234,24.191 205.419,23.733 205.644,23.359 C205.877,22.98 206.136,22.668 206.435,22.426 C206.728,22.189 207.027,21.997 207.334,21.856 C208.05,21.514 208.87,21.377 209.795,21.431 L209.795,30.543 C209.795,31.234 209.919,31.82 210.165,32.296 C210.414,32.766 210.729,33.157 211.118,33.465 C211.51,33.77 211.946,34.007 212.429,34.174 C212.916,34.34 213.392,34.456 213.867,34.535 C214.329,34.609 214.771,34.656 215.181,34.668 C215.584,34.681 215.906,34.686 216.144,34.686 C216.369,34.686 216.667,34.681 217.045,34.665 C217.433,34.644 217.845,34.595 218.29,34.507 C218.735,34.424 219.185,34.29 219.64,34.112 C220.08,33.932 220.494,33.682 220.859,33.37 C221.226,33.054 221.525,32.655 221.755,32.171 C221.987,31.689 222.105,31.102 222.105,30.411 L222.105,21.606 L227.013,21.606 L227.013,30.469 C227.013,30.51 227.013,30.681 227.013,30.967 C227.013,31.26 227.013,31.621 227.013,32.067 C227.004,32.505 227.004,32.995 227,33.541 C226.995,34.087 226.991,34.64 226.991,35.206 C226.983,36.53 227.02,47.055 227.012,48.698 L222.143,48.693 Z" id="Shape" fill="#054371"></path>
                        <g fill="#F05A28" id="Shape">
                            <path d="M47.453,27.468 C48.31,24.558 48.281,24.466 46.57,21.732 C46.52,21.654 46.474,21.574 46.428,21.495 C46.349,21.366 46.27,21.232 46.182,21.108 C43.293,16.829 39.168,14.218 33.919,13.344 C33.428,13.261 32.937,13.165 32.371,13.053 C32.163,13.011 31.942,12.97 31.708,12.923 C32.574,11.467 32.416,10.06 32.137,8.511 C32.012,7.833 31.908,7.15 31.804,6.472 C31.733,6.018 31.662,5.564 31.587,5.115 C31.367,3.775 30.755,2.793 29.718,2.109 C28.486,1.306 27.203,0.902 25.68,0.839 C25.318,0.822 24.96,0.814 24.602,0.814 C21.176,0.814 18.138,1.49 15.307,2.867 C15.199,2.922 15.082,2.967 14.966,3.017 C14.325,3.288 13.525,3.628 13.309,4.881 L13.251,5.247 L13.605,5.151 C13.88,5.077 14.147,5.018 14.396,4.963 C14.899,4.852 15.379,4.742 15.812,4.539 C17.544,3.723 19.425,2.944 21.44,2.773 C23.068,2.636 24.778,2.632 26.477,2.765 C27.397,2.835 27.797,3.078 28.15,3.544 C27.746,3.53 27.338,3.509 26.931,3.493 C25.636,3.438 24.217,3.393 23.056,3.456 C19.78,3.635 16.774,4.899 13.869,6.124 L12.911,6.523 C12.049,6.881 11.354,7.501 10.926,7.956 C9.906,9.024 9.031,10.203 9.494,11.573 C9.906,12.772 11.088,13.645 12.503,13.792 L12.728,13.816 C13.84,13.928 14.984,14.049 16.112,14.049 C16.582,14.049 17.011,14.028 17.427,13.986 C21.81,13.556 25.573,11.58 28.363,9.902 C28.783,9.648 29.191,9.357 29.583,9.078 C29.695,8.999 29.808,8.92 29.92,8.841 C30.486,10.031 30.569,11.047 30.157,11.788 C29.761,12.504 28.904,12.933 27.684,13.028 C22.268,13.462 17.739,14.74 13.843,16.933 C12.431,17.728 11.512,18.886 11.029,20.462 L11.008,20.554 L11.05,20.642 C11.487,21.445 12.124,21.537 12.565,21.537 C12.777,21.537 12.994,21.516 13.232,21.487 C16.341,21.125 19.442,20.242 22.71,18.79 C24.741,17.891 26.839,16.958 28.737,15.722 C30.145,14.807 31.535,14.482 33.054,14.715 C38.795,15.598 43.09,18.674 45.825,23.864 C45.937,24.08 46.021,24.289 46.075,24.492 C46.258,25.201 46.167,25.842 45.821,26.287 C45.413,26.811 44.68,27.057 43.781,26.949 C41.35,26.644 39.323,26.482 37.412,26.437 C32.916,26.332 28.45,27.14 24.133,27.922 C23.546,28.03 22.955,28.138 22.364,28.242 C18.614,28.913 14.942,30.073 11.79,31.11 C9.276,31.938 6.812,33.038 4.427,34.103 L3.528,34.506 C2.208,35.094 1.214,35.963 0.489,37.17 L0.36,37.383 L0.576,37.5 C0.734,37.582 0.88,37.67 1.021,37.752 C1.321,37.928 1.604,38.1 1.92,38.195 C7.169,39.785 12.706,39.966 18.251,38.731 C22.63,37.752 27.026,36.514 31.276,35.309 L33.59,34.657 C37.449,33.579 41.491,32.221 44.958,29.657 C45.045,29.591 45.133,29.528 45.229,29.478 C45.462,29.366 45.687,29.303 45.887,29.303 C46.324,29.303 46.578,29.586 46.607,30.102 C46.64,30.744 46.461,31.476 46.141,32.022 C44.567,34.731 41.82,35.926 39.164,37.079 C39.01,37.145 38.739,37.145 38.461,37.126 C38.303,37.112 38.14,37.105 37.982,37.112 C37.128,37.155 36.271,37.178 35.409,37.204 C33.494,37.255 31.513,37.313 29.594,37.604 C24.457,38.381 19.258,39.327 14.229,40.239 C13.064,40.456 11.898,40.665 10.732,40.876 C9.767,41.046 8.726,41.351 7.54,41.796 C7.099,41.962 6.711,42.216 6.22,42.544 C5.983,42.704 5.716,42.882 5.408,43.071 L5.033,43.298 L5.437,43.482 C5.725,43.615 5.961,43.736 6.161,43.841 C6.545,44.032 6.819,44.173 7.127,44.239 C7.477,44.313 7.826,44.388 8.176,44.468 C9.591,44.781 11.052,45.105 12.518,45.269 C13.541,45.384 14.632,45.495 15.71,45.495 C16.426,45.495 17.067,45.447 17.662,45.349 C20.747,44.832 23.802,44.129 26.749,43.254 C29.043,42.573 31.34,41.769 33.56,40.983 C34.838,40.535 36.153,40.071 37.456,39.635 C38.068,39.43 38.884,39.197 39.637,39.256 C40.095,39.289 40.741,39.682 40.844,39.988 C40.932,40.246 40.624,40.974 40.27,41.217 C38.83,42.196 37.265,43.053 35.912,43.778 C35.791,43.844 35.612,43.879 35.388,43.879 C35.188,43.879 34.976,43.855 34.818,43.828 C33.902,43.698 32.97,43.637 31.975,43.637 C29.361,43.637 26.747,44.09 24.075,44.59 C23.709,44.662 23.346,44.744 22.98,44.828 C22.41,44.955 21.819,45.094 21.236,45.164 C19.196,45.428 17.277,46.131 15.541,47.254 C14.846,47.703 13.988,48.267 14.184,49.549 L14.201,49.67 L14.31,49.724 C14.364,49.748 14.418,49.787 14.472,49.824 C14.626,49.924 14.805,50.037 15.009,50.053 C15.455,50.096 15.9,50.141 16.345,50.192 C17.278,50.293 18.248,50.395 19.197,50.395 C20.175,50.395 21.029,50.289 21.807,50.053 C24.609,49.235 27.435,48.334 30.166,47.459 C31.431,47.057 32.697,46.652 33.962,46.254 C34.104,46.211 34.249,46.158 34.387,46.104 C34.744,45.971 35.111,45.83 35.428,45.871 C35.827,45.926 36.352,46.267 36.481,46.559 C36.623,46.889 36.515,47.378 36.19,47.874 C35.761,48.529 35.078,49.009 34.558,49.016 L34.338,49.016 C33.817,49.016 33.296,49.001 32.776,48.997 C32.255,48.988 31.732,48.978 31.211,48.978 C30.149,48.978 29.3,49.015 28.53,49.095 C26.906,49.271 25.191,49.699 23.568,50.333 C22.09,50.901 21.27,52.112 21.266,53.728 L21.266,53.919 L21.457,53.958 C21.603,53.991 21.744,54.024 21.882,54.058 C22.174,54.132 22.452,54.2 22.735,54.228 C23.23,54.275 23.73,54.3 24.226,54.3 C25.662,54.3 27.039,54.099 28.334,53.771 C27.759,53.986 27.118,54.275 26.619,54.71 C26.336,54.96 26.198,55.339 26.065,55.706 C26.011,55.856 25.957,56.001 25.895,56.134 L25.787,56.376 L26.037,56.458 C26.17,56.501 26.299,56.55 26.428,56.604 C26.736,56.721 27.053,56.846 27.389,56.875 C27.685,56.899 28.005,56.908 28.41,56.908 C28.651,56.908 28.897,56.908 29.159,56.899 C29.28,56.899 29.4,56.899 29.525,56.893 C28.501,58.022 28.472,58.604 29.133,60.076 C29.396,60.666 29.604,61.211 29.766,61.744 C29.999,62.498 30.511,62.66 30.898,62.66 C30.961,62.66 31.031,62.651 31.102,62.643 C32.014,62.531 31.993,61.74 31.98,61.315 C31.967,60.94 31.963,60.565 31.955,60.194 C31.938,59.414 31.922,58.631 31.885,57.842 C31.847,56.998 32.147,56.455 32.926,55.983 C33.884,55.403 34.758,54.668 35.603,53.957 L35.836,53.76 C36.748,52.998 37.047,52.064 36.706,51.066 C36.448,50.32 36.702,49.765 37.193,49.121 C38.029,48.027 38.991,46.402 37.904,44.797 C38.312,44.463 38.724,44.143 39.128,43.83 C40.169,43.016 41.15,42.254 42.042,41.367 C42.691,40.721 42.971,40.205 42.945,39.689 C42.916,39.133 42.553,38.626 41.688,37.918 C41.65,37.889 41.613,37.809 41.563,37.713 C41.559,37.701 41.551,37.684 41.542,37.672 L42.108,37.344 C42.611,37.051 43.103,36.77 43.586,36.473 C45.276,35.457 46.566,34.276 47.528,32.864 C49.017,30.677 49.009,29.449 47.453,27.468 Z M29.161,6.425 C28.915,7.65 28.104,8.279 27.259,8.779 C22.788,11.409 18.888,12.633 14.995,12.633 C14.778,12.633 14.558,12.629 14.337,12.62 C13.243,12.583 12.468,12.305 11.827,11.713 C11.048,11.001 10.981,10.561 11.527,9.836 C11.977,9.232 12.618,8.662 13.321,8.221 C16.206,6.422 19.532,5.64 22.109,5.16 C22.5,5.086 22.912,5.053 23.374,5.053 C24.377,5.053 25.431,5.223 26.455,5.39 C26.776,5.444 27.096,5.498 27.416,5.545 C27.857,5.61 28.294,5.885 28.715,6.151 C28.866,6.251 29.016,6.343 29.161,6.425 Z M26.955,14.672 C24.091,17.04 16.802,19.655 13.709,19.655 C13.581,19.655 13.459,19.65 13.347,19.637 C13.639,18.916 14.284,18.526 14.979,18.164 C18.646,16.231 21.631,15.236 24.661,14.945 C25.352,14.875 26.039,14.787 26.73,14.7 C26.805,14.692 26.88,14.681 26.955,14.672 Z M3.332,36.872 C3.585,36.276 4.035,35.872 4.751,35.573 C5.383,35.309 6.016,35.04 6.649,34.772 C8.381,34.028 10.17,33.262 11.982,32.663 C15.125,31.626 18.509,30.565 21.926,29.832 C25.181,29.142 28.566,28.77 31.842,28.413 L31.984,28.4 C34.311,28.145 36.738,28.016 39.406,28.001 L39.456,28.001 C40.393,28.001 41.358,28.159 42.291,28.309 C42.67,28.372 43.053,28.434 43.432,28.484 L43.453,28.692 C42.442,29.796 41.039,30.349 39.678,30.886 L39.611,30.915 C31.798,33.991 23.252,36.276 13.486,37.895 C12.591,38.045 11.651,38.12 10.685,38.12 C8.683,38.12 6.564,37.815 4.012,37.159 C3.854,37.12 3.691,37.042 3.491,36.942 C3.44,36.921 3.386,36.896 3.332,36.872 Z M35.705,38.749 C35.305,38.907 34.906,39.073 34.506,39.239 C33.515,39.657 32.487,40.089 31.446,40.368 L30.277,40.683 C26.164,41.79 21.91,42.939 17.676,43.806 C15.191,44.316 12.498,44.109 9.405,43.163 C10.849,42.249 14.979,41.249 22.255,40.042 C26.497,39.337 31.059,38.692 35.701,38.733 L35.705,38.749 Z M16.386,48.721 L16.327,48.468 C16.631,48.323 16.935,48.155 17.226,47.999 C17.962,47.6 18.724,47.186 19.511,47.018 L20.506,46.8 C24.19,45.995 27.995,45.163 31.85,45.149 L32.682,45.149 C32.52,45.307 32.399,45.419 32.299,45.448 C31.425,45.702 30.555,45.956 29.681,46.214 C26.655,47.101 23.529,48.017 20.415,48.763 C20.04,48.855 19.624,48.9 19.133,48.9 C18.625,48.9 18.088,48.851 17.572,48.808 C17.185,48.77 16.782,48.734 16.386,48.721 Z M34.681,52.734 L34.627,52.782 C33.741,53.589 32.824,54.429 31.626,54.769 C31.068,53.941 30.356,53.517 29.52,53.517 C29.399,53.517 29.278,53.529 29.153,53.546 C31.205,52.929 33.037,52.034 34.581,51.194 C35.164,52.294 35.126,52.323 34.681,52.734 Z M31.638,50.704 C29.348,52.058 27.134,52.689 24.72,52.689 L24.72,52.689 C24.282,52.689 23.833,52.668 23.38,52.624 C23.413,52.577 23.438,52.532 23.463,52.489 C23.6,52.263 23.716,52.073 23.837,52.019 C24.062,51.915 24.291,51.806 24.524,51.693 C25.373,51.29 26.252,50.87 27.134,50.765 C27.746,50.689 28.421,50.652 29.245,50.652 C29.773,50.652 30.306,50.671 30.844,50.681 C31.109,50.689 31.372,50.7 31.638,50.704 Z"></path>
                            <path d="M1.58,31.905 C1.617,31.913 1.655,31.918 1.696,31.918 C1.988,31.918 2.32,31.714 2.525,31.506 C2.675,31.357 2.721,31.148 2.762,30.96 C2.779,30.886 2.791,30.811 2.817,30.743 C4.161,26.882 6.263,21.994 10.671,18.464 C10.817,18.352 10.904,18.202 11.012,18.011 C11.066,17.915 11.129,17.807 11.208,17.686 L11.349,17.469 L11.12,17.349 C10.812,17.187 10.529,17.107 10.263,17.107 C9.705,17.107 9.343,17.445 9.022,17.74 L8.91,17.844 C6.89,19.667 4.797,21.557 3.244,24.017 C2.137,25.765 1.388,27.656 0.884,29.957 C0.814,30.294 0.738,30.739 0.839,31.144 C0.909,31.447 1.242,31.835 1.58,31.905 Z"></path>
                        </g>
                    </g>
                    <circle id="Oval" stroke="#054371" fill="#FFFFFF" fill-rule="nonzero" cx="235.535" cy="25.815" r="3.983"></circle>
                    <text id="R" fill="#054371" font-family="Helvetica" font-size="6.0907" font-weight="normal">
                        <tspan x="233.8555" y="28.0596">R</tspan>
                    </text>
                    <g id="Group" transform="translate(66.000000, 43.000000)" fill="#054371" fill-rule="nonzero">
                        <path d="M1.172,1.651 C1.172,1.922 0.974,2.137 0.668,2.137 C0.38,2.137 0.182,1.921 0.191,1.651 C0.182,1.381 0.389,1.156 0.677,1.156 C0.965,1.156 1.164,1.373 1.172,1.651 Z M0.281,7.233 L0.281,2.884 L1.064,2.884 L1.064,7.233 L0.281,7.233 Z" id="Shape"></path>
                        <path d="M2.387,4.056 C2.387,3.606 2.369,3.237 2.351,2.885 L3.053,2.885 L3.089,3.597 L3.116,3.597 C3.332,3.192 3.836,2.786 4.556,2.786 C5.15,2.786 6.087,3.146 6.087,4.632 L6.087,7.234 L5.304,7.234 L5.304,4.731 C5.304,4.02 5.043,3.435 4.296,3.435 C3.774,3.435 3.378,3.804 3.233,4.245 C3.197,4.345 3.17,4.479 3.17,4.614 L3.17,7.234 L2.387,7.234 L2.387,4.056 Z" id="Shape"></path>
                        <path d="M7.382,4.056 C7.382,3.606 7.364,3.237 7.346,2.885 L8.048,2.885 L8.084,3.597 L8.111,3.597 C8.327,3.192 8.831,2.786 9.551,2.786 C10.145,2.786 11.082,3.146 11.082,4.632 L11.082,7.234 L10.299,7.234 L10.299,4.731 C10.299,4.02 10.038,3.435 9.291,3.435 C8.769,3.435 8.373,3.804 8.228,4.245 C8.192,4.345 8.165,4.479 8.165,4.614 L8.165,7.234 L7.382,7.234 L7.382,4.056 Z" id="Shape"></path>
                        <path d="M16.32,5.055 C16.32,6.666 15.14,7.332 14.132,7.332 C12.989,7.332 12.062,6.478 12.062,5.073 C12.062,3.614 13.052,2.786 14.231,2.786 C15.447,2.786 16.32,3.659 16.32,5.055 Z M12.863,5.073 C12.863,5.946 13.304,6.738 14.186,6.738 C15.05,6.738 15.519,5.946 15.519,5.063 C15.519,4.307 15.168,3.371 14.186,3.371 C13.214,3.371 12.863,4.299 12.863,5.073 Z" id="Shape"></path>
                        <path d="M17.624,2.885 L18.479,5.325 C18.623,5.721 18.74,6.081 18.83,6.45 L18.857,6.45 C18.956,6.09 19.082,5.721 19.217,5.325 L20.072,2.885 L20.9,2.885 L19.19,7.234 L18.434,7.234 L16.778,2.885 L17.624,2.885 Z" id="Shape"></path>
                        <path d="M24.708,6.189 C24.708,6.567 24.726,6.936 24.771,7.233 L24.06,7.233 L23.988,6.684 L23.97,6.684 C23.727,7.017 23.259,7.331 22.637,7.331 C21.764,7.331 21.304,6.701 21.304,6.08 C21.304,5.026 22.241,4.45 23.924,4.469 L23.924,4.369 C23.924,4.01 23.816,3.361 22.934,3.361 C22.529,3.361 22.097,3.487 21.799,3.685 L21.619,3.163 C21.979,2.929 22.51,2.785 23.05,2.785 C24.383,2.785 24.707,3.694 24.707,4.567 L24.707,6.189 L24.708,6.189 Z M23.942,5.019 C23.078,4.993 22.097,5.145 22.097,5.992 C22.097,6.513 22.448,6.748 22.844,6.748 C23.42,6.748 23.771,6.388 23.907,6.019 C23.925,5.929 23.943,5.848 23.943,5.767 L23.943,5.019 L23.942,5.019 Z" id="Shape"></path>
                        <path d="M26.939,1.625 L26.939,2.885 L28.073,2.885 L28.073,3.48 L26.939,3.48 L26.939,5.83 C26.939,6.37 27.092,6.676 27.533,6.676 C27.74,6.676 27.884,6.65 27.992,6.622 L28.028,7.217 C27.875,7.288 27.632,7.333 27.317,7.333 C26.957,7.333 26.65,7.207 26.462,7 C26.255,6.748 26.165,6.37 26.165,5.857 L26.165,3.48 L25.49,3.48 L25.49,2.885 L26.165,2.885 L26.165,1.832 L26.939,1.625 Z" id="Shape"></path>
                        <path d="M29.405,5.199 C29.423,6.27 30.098,6.711 30.9,6.711 C31.467,6.711 31.818,6.612 32.107,6.486 L32.242,7.053 C31.972,7.179 31.486,7.331 30.793,7.331 C29.452,7.331 28.65,6.44 28.65,5.135 C28.65,3.812 29.424,2.785 30.702,2.785 C32.116,2.785 32.494,4.027 32.494,4.829 C32.494,4.991 32.476,5.117 32.458,5.198 L29.405,5.198 L29.405,5.199 Z M31.728,4.632 C31.737,4.137 31.521,3.354 30.63,3.354 C29.829,3.354 29.478,4.083 29.415,4.632 L31.728,4.632 Z" id="Shape"></path>
                        <path d="M33.329,6.774 C33.329,6.432 33.545,6.198 33.86,6.198 C34.184,6.198 34.391,6.432 34.391,6.774 C34.391,7.088 34.183,7.332 33.85,7.332 C33.544,7.332 33.319,7.089 33.329,6.774 Z" id="Shape"></path>
                        <path d="M41.223,0.842 L41.223,6.117 C41.223,6.495 41.241,6.928 41.259,7.233 L40.557,7.233 L40.521,6.477 L40.494,6.477 C40.26,6.972 39.729,7.331 39.027,7.331 C37.964,7.331 37.154,6.44 37.154,5.126 C37.145,3.667 38.045,2.785 39.108,2.785 C39.774,2.785 40.224,3.091 40.422,3.442 L40.44,3.442 L40.44,0.84 L41.223,0.84 L41.223,0.842 Z M40.439,4.649 C40.439,4.55 40.43,4.416 40.412,4.316 C40.286,3.812 39.854,3.407 39.26,3.407 C38.441,3.407 37.946,4.118 37.946,5.082 C37.946,5.964 38.387,6.702 39.242,6.702 C39.773,6.702 40.25,6.342 40.404,5.748 C40.431,5.64 40.44,5.532 40.44,5.406 L40.44,4.649 L40.439,4.649 Z" id="Shape"></path>
                        <path d="M43.436,1.651 C43.436,1.922 43.238,2.137 42.932,2.137 C42.644,2.137 42.446,1.921 42.455,1.651 C42.446,1.381 42.653,1.156 42.941,1.156 C43.229,1.156 43.427,1.373 43.436,1.651 Z M42.544,7.233 L42.544,2.884 L43.327,2.884 L43.327,7.233 L42.544,7.233 Z" id="Shape"></path>
                        <path d="M44.542,6.423 C44.776,6.576 45.19,6.738 45.586,6.738 C46.162,6.738 46.433,6.45 46.433,6.09 C46.433,5.712 46.208,5.514 45.622,5.298 C44.839,5.01 44.47,4.577 44.47,4.056 C44.47,3.363 45.037,2.786 45.973,2.786 C46.414,2.786 46.801,2.903 47.044,3.047 L46.846,3.623 C46.675,3.524 46.36,3.362 45.946,3.362 C45.487,3.362 45.226,3.641 45.226,3.966 C45.226,4.325 45.478,4.487 46.054,4.713 C46.801,4.992 47.198,5.36 47.198,6.018 C47.198,6.784 46.604,7.332 45.569,7.332 C45.091,7.332 44.651,7.206 44.344,7.026 L44.542,6.423 Z" id="Shape"></path>
                        <path d="M48.214,4.235 C48.214,3.722 48.196,3.29 48.178,2.884 L48.871,2.884 L48.898,3.739 L48.925,3.739 C49.132,3.154 49.618,2.785 50.14,2.785 C50.23,2.785 50.293,2.785 50.356,2.803 L50.356,3.551 C50.284,3.532 50.203,3.524 50.095,3.524 C49.528,3.524 49.141,3.947 49.033,4.542 C49.006,4.649 48.997,4.784 48.997,4.901 L48.997,7.233 L48.214,7.233 L48.214,4.235 Z" id="Shape"></path>
                        <path d="M54.137,7.233 L54.092,6.522 L54.074,6.522 C53.876,6.855 53.435,7.332 52.624,7.332 C51.778,7.332 51.13,6.819 51.13,5.424 L51.13,2.885 L51.922,2.885 L51.922,5.289 C51.922,6.135 52.192,6.685 52.877,6.685 C53.453,6.685 53.822,6.289 53.939,5.964 C53.984,5.838 54.011,5.685 54.011,5.55 L54.011,2.885 L54.795,2.885 L54.795,6.045 C54.795,6.504 54.813,6.882 54.83,7.233 L54.137,7.233 Z" id="Shape"></path>
                        <path d="M56.107,4.299 C56.107,3.74 56.089,3.29 56.071,2.885 L56.783,2.885 L56.818,3.623 L56.836,3.623 C57.152,3.092 57.674,2.786 58.385,2.786 C59.439,2.786 60.231,3.668 60.231,4.992 C60.231,6.558 59.277,7.332 58.259,7.332 C57.665,7.332 57.17,7.08 56.908,6.648 L56.89,6.648 L56.89,9.015 L56.107,9.015 L56.107,4.299 Z M56.891,5.46 C56.891,5.577 56.9,5.685 56.927,5.784 C57.071,6.342 57.548,6.711 58.115,6.711 C58.952,6.711 59.438,6.027 59.438,5.027 C59.438,4.154 58.979,3.416 58.142,3.416 C57.601,3.416 57.097,3.794 56.945,4.389 C56.918,4.488 56.89,4.605 56.89,4.713 L56.89,5.46 L56.891,5.46 Z" id="Shape"></path>
                        <path d="M62.191,1.625 L62.191,2.885 L63.326,2.885 L63.326,3.48 L62.191,3.48 L62.191,5.83 C62.191,6.37 62.344,6.676 62.785,6.676 C62.992,6.676 63.137,6.65 63.245,6.622 L63.281,7.217 C63.128,7.288 62.885,7.333 62.57,7.333 C62.209,7.333 61.903,7.207 61.715,7 C61.508,6.748 61.418,6.37 61.418,5.857 L61.418,3.48 L60.742,3.48 L60.742,2.885 L61.418,2.885 L61.418,1.832 L62.191,1.625 Z" id="Shape"></path>
                        <path d="M64.072,6.774 C64.072,6.432 64.288,6.198 64.603,6.198 C64.927,6.198 65.134,6.432 65.134,6.774 C65.134,7.088 64.927,7.332 64.593,7.332 C64.288,7.332 64.063,7.089 64.072,6.774 Z" id="Shape"></path>
                        <path d="M69.166,1.625 L69.166,2.885 L70.301,2.885 L70.301,3.48 L69.166,3.48 L69.166,5.83 C69.166,6.37 69.319,6.676 69.76,6.676 C69.967,6.676 70.112,6.65 70.22,6.622 L70.256,7.217 C70.103,7.288 69.86,7.333 69.545,7.333 C69.184,7.333 68.878,7.207 68.69,7 C68.483,6.748 68.393,6.37 68.393,5.857 L68.393,3.48 L67.717,3.48 L67.717,2.885 L68.393,2.885 L68.393,1.832 L69.166,1.625 Z" id="Shape"></path>
                        <path d="M71.191,4.235 C71.191,3.722 71.172,3.29 71.154,2.884 L71.847,2.884 L71.874,3.739 L71.901,3.739 C72.108,3.154 72.594,2.785 73.116,2.785 C73.206,2.785 73.269,2.785 73.333,2.803 L73.333,3.551 C73.261,3.532 73.18,3.524 73.071,3.524 C72.505,3.524 72.117,3.947 72.008,4.542 C71.981,4.649 71.973,4.784 71.973,4.901 L71.973,7.233 L71.19,7.233 L71.19,4.235 L71.191,4.235 Z" id="Shape"></path>
                        <path d="M77.194,6.189 C77.194,6.567 77.213,6.936 77.257,7.233 L76.546,7.233 L76.474,6.684 L76.455,6.684 C76.213,7.017 75.744,7.331 75.123,7.331 C74.25,7.331 73.79,6.701 73.79,6.08 C73.79,5.026 74.727,4.45 76.41,4.469 L76.41,4.369 C76.41,4.01 76.303,3.361 75.42,3.361 C75.015,3.361 74.583,3.487 74.286,3.685 L74.106,3.163 C74.465,2.929 74.997,2.785 75.537,2.785 C76.869,2.785 77.193,3.694 77.193,4.567 L77.193,6.189 L77.194,6.189 Z M76.43,5.019 C75.566,4.993 74.584,5.145 74.584,5.992 C74.584,6.513 74.935,6.748 75.331,6.748 C75.907,6.748 76.259,6.388 76.394,6.019 C76.412,5.929 76.43,5.848 76.43,5.767 L76.43,5.019 Z" id="Shape"></path>
                        <path d="M78.472,4.056 C78.472,3.606 78.454,3.237 78.436,2.885 L79.138,2.885 L79.174,3.597 L79.201,3.597 C79.417,3.192 79.921,2.786 80.641,2.786 C81.235,2.786 82.171,3.146 82.171,4.632 L82.171,7.234 L81.388,7.234 L81.388,4.731 C81.388,4.02 81.127,3.435 80.379,3.435 C79.858,3.435 79.461,3.804 79.317,4.245 C79.281,4.345 79.254,4.479 79.254,4.614 L79.254,7.234 L78.471,7.234 L78.471,4.056 L78.472,4.056 Z" id="Shape"></path>
                        <path d="M83.358,6.423 C83.592,6.576 84.006,6.738 84.403,6.738 C84.979,6.738 85.249,6.45 85.249,6.09 C85.249,5.712 85.024,5.514 84.439,5.298 C83.656,5.01 83.287,4.577 83.287,4.056 C83.287,3.363 83.853,2.786 84.79,2.786 C85.231,2.786 85.618,2.903 85.861,3.047 L85.663,3.623 C85.492,3.524 85.178,3.362 84.763,3.362 C84.304,3.362 84.043,3.641 84.043,3.966 C84.043,4.325 84.295,4.487 84.871,4.713 C85.618,4.992 86.015,5.36 86.015,6.018 C86.015,6.784 85.42,7.332 84.385,7.332 C83.908,7.332 83.467,7.206 83.161,7.026 L83.358,6.423 Z" id="Shape"></path>
                        <path d="M87.112,7.233 L87.112,3.479 L86.5,3.479 L86.5,2.884 L87.112,2.884 L87.112,2.668 C87.112,2.056 87.247,1.498 87.616,1.147 C87.913,0.859 88.309,0.742 88.67,0.742 C88.958,0.742 89.219,0.805 89.354,0.878 L89.219,1.481 C89.093,1.427 88.949,1.374 88.733,1.374 C88.067,1.374 87.896,1.968 87.896,2.643 L87.896,2.886 L88.95,2.886 L88.95,3.481 L87.896,3.481 L87.896,7.235 L87.112,7.235 L87.112,7.233 Z" id="Shape"></path>
                        <path d="M93.603,5.055 C93.603,6.666 92.423,7.332 91.415,7.332 C90.271,7.332 89.344,6.478 89.344,5.073 C89.344,3.614 90.334,2.786 91.514,2.786 C92.729,2.786 93.603,3.659 93.603,5.055 Z M90.146,5.073 C90.146,5.946 90.587,6.738 91.469,6.738 C92.333,6.738 92.801,5.946 92.801,5.063 C92.801,4.307 92.45,3.371 91.469,3.371 C90.496,3.371 90.146,4.299 90.146,5.073 Z" id="Shape"></path>
                        <path d="M94.6,4.235 C94.6,3.722 94.582,3.29 94.564,2.884 L95.257,2.884 L95.284,3.739 L95.31,3.739 C95.517,3.154 96.003,2.785 96.526,2.785 C96.616,2.785 96.678,2.785 96.742,2.803 L96.742,3.551 C96.67,3.532 96.589,3.524 96.481,3.524 C95.914,3.524 95.526,3.947 95.418,4.542 C95.391,4.649 95.382,4.784 95.382,4.901 L95.382,7.233 L94.6,7.233 L94.6,4.235 Z" id="Shape"></path>
                        <path d="M97.543,4.056 C97.543,3.606 97.525,3.237 97.507,2.885 L98.192,2.885 L98.237,3.578 L98.255,3.578 C98.498,3.164 98.903,2.786 99.633,2.786 C100.227,2.786 100.677,3.146 100.866,3.65 L100.884,3.65 C101.019,3.407 101.191,3.217 101.37,3.083 C101.641,2.885 101.919,2.786 102.333,2.786 C102.909,2.786 103.765,3.155 103.765,4.668 L103.765,7.233 L103,7.233 L103,4.775 C103,3.929 102.685,3.424 102.045,3.424 C101.595,3.424 101.244,3.758 101.109,4.136 C101.073,4.253 101.037,4.397 101.037,4.541 L101.037,7.232 L100.271,7.232 L100.271,4.622 C100.271,3.929 99.957,3.424 99.362,3.424 C98.867,3.424 98.507,3.82 98.372,4.217 C98.336,4.334 98.318,4.478 98.318,4.604 L98.318,7.233 L97.544,7.233 L97.544,4.056 L97.543,4.056 Z" id="Shape"></path>
                    </g>
                </g>
            </g>
        </g>
    </g>
</svg>