<?xml version="1.0" encoding="UTF-8"?>
<svg width="23px" height="23px" viewBox="0 0 23 23" version="1.1" xmlns="http://www.w3.org/2000/svg" xmlns:xlink="http://www.w3.org/1999/xlink">
    <!-- Generator: Sketch 54.1 (76490) - https://sketchapp.com -->
    <title>icon/linkedin</title>
    <desc>Created with Sketch.</desc>
    <g id="Page-1" stroke="none" stroke-width="1" fill="none" fill-rule="evenodd">
        <g id="Company" transform="translate(-220.000000, -2471.000000)" fill="#BBBBBB">
            <g id="Group-6" transform="translate(177.000000, 2111.000000)">
                <g id="Group-3">
                    <g id="Group-4" transform="translate(0.000000, 360.000000)">
                        <g id="icon/linkedin" transform="translate(43.000000, 0.000000)">
                            <g id="linkedin-(1)">
                                <path d="M20.9194634,0 L2.08053665,0 C0.9315,0 0,0.9315 0,2.08053665 L0,20.9194031 C0,22.0685 0.9315,23 2.08053665,23 L20.9194031,23 C22.0685,23 23,22.0685 23,20.9194031 L23,2.08053665 C23,0.9315 22.0685,0 20.9194634,0 Z M7.11717539,19.8597173 C7.11717539,20.1941204 6.84611257,20.4651832 6.51170942,20.4651832 L3.93438482,20.4651832 C3.59998168,20.4651832 3.32891885,20.1941204 3.32891885,19.8597173 L3.32891885,9.05567801 C3.32891885,8.72127487 3.59998168,8.45021204 3.93438482,8.45021204 L6.51170942,8.45021204 C6.84611257,8.45021204 7.11717539,8.72127487 7.11717539,9.05567801 L7.11717539,19.8597173 Z M5.22304712,7.43176963 C3.87080366,7.43176963 2.77457068,6.33553665 2.77457068,4.98329319 C2.77457068,3.63104974 3.87080366,2.53481675 5.22304712,2.53481675 C6.57529058,2.53481675 7.67152356,3.63104974 7.67152356,4.98329319 C7.67152356,6.33553665 6.57535079,7.43176963 5.22304712,7.43176963 Z M20.5862042,19.9084869 C20.5862042,20.2159162 20.3369372,20.4651832 20.0295079,20.4651832 L17.2638482,20.4651832 C16.9564188,20.4651832 16.7071518,20.2159162 16.7071518,19.9084869 L16.7071518,14.8407801 C16.7071518,14.0847906 16.9289031,11.5279974 14.7315,11.5279974 C13.0270314,11.5279974 12.6813089,13.2780445 12.6118874,14.0634162 L12.6118874,19.9084869 C12.6118874,20.2159162 12.3626806,20.4651832 12.0551911,20.4651832 L9.38032723,20.4651832 C9.07289791,20.4651832 8.82363089,20.2159162 8.82363089,19.9084869 L8.82363089,9.00690838 C8.82363089,8.69947906 9.07289791,8.45021204 9.38032723,8.45021204 L12.0551911,8.45021204 C12.3626204,8.45021204 12.6118874,8.69947906 12.6118874,9.00690838 L12.6118874,9.94948691 C13.2439058,9.00100785 14.1831728,8.26892147 16.1830288,8.26892147 C20.6115524,8.26892147 20.5862042,12.4062723 20.5862042,14.6795393 L20.5862042,19.9084869 L20.5862042,19.9084869 Z" id="Shape" fill-rule="nonzero"></path>
                            </g>
                        </g>
                    </g>
                </g>
            </g>
        </g>
    </g>
</svg>