<?xml version="1.0" encoding="UTF-8"?>
<svg width="28px" height="23px" viewBox="0 0 28 23" version="1.1" xmlns="http://www.w3.org/2000/svg" xmlns:xlink="http://www.w3.org/1999/xlink">
    <!-- Generator: Sketch 54.1 (76490) - https://sketchapp.com -->
    <title>icon/twitter</title>
    <desc>Created with Sketch.</desc>
    <g id="Page-1" stroke="none" stroke-width="1" fill="none" fill-rule="evenodd">
        <g id="Company" transform="translate(-177.000000, -2471.000000)" fill="#BBBBBB">
            <g id="Group-6" transform="translate(177.000000, 2111.000000)">
                <g id="Group-3">
                    <g id="Group-4" transform="translate(0.000000, 360.000000)">
                        <g id="icon/twitter">
                            <g id="twitter">
                                <path d="M28,2.72284615 C26.95875,3.18461538 25.84925,3.49069231 24.6925,3.63930769 C25.8825,2.921 26.79075,1.79223077 27.21775,0.431692308 C26.10825,1.10046154 24.88325,1.57284615 23.57775,1.83646154 C22.52425,0.702384615 21.02275,0 19.38475,0 C16.20675,0 13.64825,2.60784615 13.64825,5.80484615 C13.64825,6.26484615 13.68675,6.70715385 13.78125,7.12823077 C9.009,6.89292308 4.78625,4.58053846 1.9495,1.058 C1.45425,1.92669231 1.16375,2.921 1.16375,3.99138462 C1.16375,6.00123077 2.1875,7.78284615 3.7135,8.81430769 C2.79125,8.79661538 1.8865,8.52592308 1.12,8.09953846 C1.12,8.11723077 1.12,8.14023077 1.12,8.16323077 C1.12,10.9833846 3.10975,13.3258462 5.719,13.8654615 C5.25175,13.9946154 4.7425,14.0565385 4.214,14.0565385 C3.8465,14.0565385 3.4755,14.0353077 3.12725,13.9574615 C3.871,16.2556923 5.9815,17.9453077 8.491,18.0001538 C6.538,19.5446923 4.05825,20.4753077 1.37375,20.4753077 C0.903,20.4753077 0.4515,20.4540769 0,20.3956923 C2.54275,22.0534615 5.55625,23 8.806,23 C19.369,23 25.144,14.1538462 25.144,6.486 C25.144,6.22946154 25.13525,5.98176923 25.123,5.73584615 C26.26225,4.91846154 27.2195,3.89761538 28,2.72284615 Z" id="Path" fill-rule="nonzero"></path>
                            </g>
                        </g>
                    </g>
                </g>
            </g>
        </g>
    </g>
</svg>