<?xml version="1.0" encoding="UTF-8"?>
<svg width="181px" height="67px" viewBox="0 0 181 67" version="1.1" xmlns="http://www.w3.org/2000/svg" xmlns:xlink="http://www.w3.org/1999/xlink">
    <!-- Generator: Sketch 54.1 (76490) - https://sketchapp.com -->
    <title>Logo</title>
    <desc>Created with Sketch.</desc>
    <defs>
        <polygon id="path-1" points="0 0.25853431 118.376961 0.25853431 118.376961 46.5827586 0 46.5827586"></polygon>
    </defs>
    <g id="Page-1" stroke="none" stroke-width="1" fill="none" fill-rule="evenodd">
        <g id="Work-V2" transform="translate(-1463.000000, -3130.000000)">
            <g id="Logo" transform="translate(1463.000000, 3129.000000)">
                <g id="Zilch_Brand-Logotype-EPS_Indigo" transform="translate(0.686957, 0.925000)">
                    <path d="M173.704571,53.5433162 C170.439854,53.5433162 167.782609,56.2020245 167.782609,59.4685397 C167.782609,62.7346079 170.439854,65.3933162 173.704571,65.3933162 C176.968842,65.3933162 179.626087,62.7346079 179.626087,59.4685397 C179.626087,56.2020245 176.968842,53.5433162 173.704571,53.5433162" id="Fill-1" fill="#D91F51"></path>
                    <path d="M47.373913,19.9683162 C43.9194138,19.9683162 41.4521739,22.6405106 41.4521739,26.6483412 L41.4521739,58.7132912 C41.4521739,62.7215828 43.9194138,65.3933162 47.373913,65.3933162 C50.8284122,65.3933162 53.2956522,62.7215828 53.2956522,58.7132912 L53.2956522,26.6483412 C53.2956522,22.6405106 50.8284122,19.9683162 47.373913,19.9683162" id="Fill-2" fill="#FFFFFF"></path>
                    <path d="M65.1391304,0.218316195 C61.6846312,0.218316195 59.2173913,2.90561519 59.2173913,6.93725928 L59.2173913,58.6743731 C59.2173913,62.7060172 61.6846312,65.3933162 65.1391304,65.3933162 C68.5936296,65.3933162 71.0608696,62.7060172 71.0608696,58.6743731 L71.0608696,6.93725928 C71.0608696,2.90561519 68.5936296,0.218316195 65.1391304,0.218316195" id="Fill-3" fill="#FFFFFF"></path>
                    <path d="M145.452904,19.1995971 C141.705114,19.1995971 137.041299,20.2916746 134.542465,23.3991104 L134.375999,23.3991104 L134.375999,6.93725928 C134.375999,2.90561519 131.877165,0.218316195 128.379534,0.218316195 C124.881442,0.218316195 122.382609,2.90561519 122.382609,6.93725928 L122.382609,58.6743731 C122.382609,62.7060172 124.881442,65.3933162 128.379534,65.3933162 C131.877165,65.3933162 134.375999,62.7060172 134.375999,58.6743731 L134.375999,37.5933356 C134.375999,32.8897508 137.124532,29.2782436 142.038506,29.2782436 C146.369388,29.2782436 149.86748,31.9660063 149.86748,37.5933356 L149.86748,58.6743731 C149.86748,62.7060172 152.365853,65.3933162 155.863945,65.3933162 C159.362036,65.3933162 161.86087,62.7060172 161.86087,58.6743731 L161.86087,35.4935789 C161.86087,25.2470632 154.864227,19.1995971 145.452904,19.1995971" id="Fill-4" fill="#FFFFFF"></path>
                    <g id="Group-8" transform="translate(0.000000, 19.968316)">
                        <mask id="mask-2" fill="white">
                            <use xlink:href="#path-1"></use>
                        </mask>
                        <g id="Clip-6"></g>
                        <path d="M115.938363,28.7387671 C113.185567,26.5936311 109.220557,27.0920666 107.082228,29.8530267 C105.078126,32.4393014 102.062916,33.9224965 98.8094425,33.9224965 C93.0353985,33.9224965 88.3384143,29.2115821 88.3384143,23.4204136 C88.3384143,17.6297108 93.0353985,12.9187964 98.8094425,12.9187964 C101.847411,12.9187964 104.733968,14.2450076 106.729246,16.5578416 C109.009696,19.2014131 112.995607,19.490692 115.631826,17.2030128 C118.267581,14.9153335 118.55554,10.918067 116.27509,8.27402959 C111.880927,3.18020493 105.514709,0.25853431 98.8094425,0.25853431 C86.0756133,0.25853431 75.7155887,10.6488186 75.7155887,23.4204136 C75.7155887,36.1924743 86.0756133,46.5827586 98.8094425,46.5827586 C105.988448,46.5827586 112.636123,43.3163756 117.048863,37.6211675 C119.187656,34.8606732 118.69023,30.8839031 115.938363,28.7387671" id="Fill-5" fill="#FFFFFF" mask="url(#mask-2)"></path>
                        <path d="M34.8091437,10.2030216 C34.8839202,10.1340791 34.9582322,10.0656025 35.0288286,9.99293338 C35.0929228,9.92678586 35.1523724,9.85877503 35.2122864,9.79076421 C35.2703427,9.72415086 35.3288634,9.65800334 35.3845974,9.58859503 C35.444976,9.51266514 35.5016389,9.43394028 35.5583018,9.35521541 C35.6066046,9.28767041 35.6549074,9.22012541 35.7004235,9.15025128 C35.7529064,9.06919728 35.8021381,8.98627997 35.849512,8.90336266 C35.8927059,8.82929607 35.9349708,8.75476366 35.9749136,8.67836793 C36.0162496,8.59777976 36.054799,8.51532828 36.0928839,8.43287679 C36.1309688,8.34949366 36.1681248,8.26564469 36.2024941,8.17993241 C36.2336123,8.10120755 36.2614793,8.02155103 36.2893463,7.94142869 C36.3209289,7.84966066 36.3520471,7.75742679 36.3789852,7.66379545 C36.4017432,7.58460476 36.4212501,7.50448241 36.4402926,7.4248259 C36.4630506,7.32979707 36.4853442,7.23430241 36.5034578,7.13741028 C36.5192491,7.05123217 36.5308604,6.96505407 36.5429361,6.87841014 C36.5550118,6.78710793 36.5680164,6.69627155 36.5763765,6.60357186 C36.5847366,6.50341893 36.5879877,6.40280017 36.5912389,6.30264724 C36.5935611,6.24069217 36.6005279,6.18013459 36.6005279,6.11771369 C36.6005279,6.0976831 36.5977412,6.07811834 36.5972767,6.05808776 C36.5963478,5.95048159 36.5884522,5.84334124 36.5814854,5.73666672 C36.5763765,5.65933934 36.5735898,5.58108031 36.5652297,5.50468459 C36.5540829,5.40453166 36.5359693,5.30484455 36.5192491,5.20469162 C36.5062445,5.12363762 36.4960266,5.04211779 36.4788419,4.96199545 C36.4597995,4.87069324 36.4333258,4.78078852 36.4091744,4.68995214 C36.3868808,4.60470569 36.3673739,4.51852759 36.3409003,4.43514445 C36.3139621,4.35129548 36.2805217,4.268844 36.249868,4.18546086 C36.217821,4.09881693 36.1880962,4.01124134 36.1523335,3.92646072 C36.1193575,3.84913334 36.0794148,3.7741351 36.0422588,3.69773938 C35.9999939,3.61062962 35.9600512,3.52212238 35.9136061,3.43734176 C35.8755212,3.36839928 35.8313985,3.30178593 35.7905269,3.2337751 C35.7361862,3.14480203 35.6837033,3.05536314 35.6251826,2.97011669 C35.5829176,2.90862745 35.5350793,2.84946734 35.4904921,2.78890976 C35.4245402,2.70133417 35.3599816,2.61375859 35.2893852,2.53037545 C35.276845,2.51500314 35.2661627,2.49869917 35.2536225,2.48379269 C35.2132153,2.43720993 35.1690926,2.39668293 35.1277565,2.35196348 C35.0590179,2.27743107 34.9907437,2.20243283 34.9178251,2.13162703 C34.8523376,2.066877 34.7840634,2.00725107 34.7157893,1.94715931 C34.6498373,1.88846503 34.5838854,1.83023659 34.5151468,1.77526893 C34.438977,1.71377969 34.3600205,1.6564829 34.2810639,1.5991861 C34.2141831,1.55120586 34.1477668,1.50369145 34.0790281,1.45850617 C33.9972849,1.404936 33.9136839,1.35555828 33.8296184,1.30664638 C33.7566997,1.26425607 33.6837811,1.22279741 33.6090046,1.1836679 C33.5272614,1.14081176 33.4445893,1.10214807 33.3614527,1.06395021 C33.2787806,1.02575234 33.1961084,0.988951966 33.1111141,0.954946552 C33.0321575,0.923270276 32.9522721,0.894854793 32.8714578,0.866905138 C32.78089,0.835228862 32.6893934,0.804484241 32.5965033,0.777466241 C32.5166179,0.75464069 32.436268,0.735075931 32.3554537,0.715511172 C32.2616348,0.692685621 32.1678159,0.670791724 32.0721391,0.653090276 C31.985287,0.63678631 31.8975059,0.624674793 31.8097248,0.612563276 C31.7200859,0.600451759 31.6309115,0.587874414 31.5398793,0.579955345 C31.4386292,0.570638793 31.3369146,0.567843828 31.2352,0.564117207 C31.1748215,0.562253897 31.1153719,0.555266483 31.0545289,0.555266483 L5.54228338,0.555266483 C2.47923478,0.555266483 -0.00418005115,3.04558076 -0.00418005115,6.11771369 C-0.00418005115,9.18984662 2.47923478,11.6801609 5.54228338,11.6801609 L17.489334,11.6801609 C4.90552225,25.7523464 0.519719693,38.152211 0.300499233,38.787134 C0.293532481,38.8080962 0.28935243,38.8290584 0.282385678,38.8500207 C0.246158568,38.9594902 0.215504859,39.0712888 0.185780051,39.1840191 C0.166273146,39.2566882 0.14583734,39.3293573 0.130046036,39.4020264 C0.10961023,39.4942602 0.094283376,39.5874258 0.0784920716,39.6810571 C0.0622363171,39.7779492 0.0459805627,39.8748414 0.0343693095,39.9717335 C0.0264736573,40.0430051 0.0222936061,40.1147426 0.0171846547,40.18648 C0.00789565217,40.3057319 0.000464450128,40.4254496 -0.000928900256,40.5442356 C-0.000928900256,40.5651979 0.00139335038,40.6914371 0.00232225064,40.7352249 C0.00510895141,40.8558743 0.0102179028,40.9760578 0.0204358056,41.0962413 C0.0274025575,41.1703079 0.0371560102,41.2439087 0.0464450128,41.3175094 C0.0594496164,41.4204573 0.0743120205,41.5224736 0.0928900256,41.6235581 C0.10914578,41.7125312 0.129117136,41.8001068 0.150017391,41.8872166 C0.169524297,41.9705997 0.189960102,42.053517 0.213182609,42.1355027 C0.241514066,42.2337923 0.272632225,42.3297528 0.305608184,42.4257132 C0.330224041,42.496519 0.355768798,42.566859 0.383171355,42.637199 C0.421256266,42.7354886 0.463056777,42.8319149 0.50671509,42.9274096 C0.537833248,42.9949546 0.569880307,43.0615679 0.603320716,43.1277154 C0.649301279,43.218086 0.697604092,43.307059 0.748229156,43.3946346 C0.789100767,43.4645088 0.830901279,43.5339171 0.874559591,43.6023937 C0.923791304,43.6797211 0.975345269,43.7551852 1.02829258,43.8301834 C1.0812399,43.9047158 1.13604501,43.9783166 1.19270793,44.0505199 C1.24286854,44.1143382 1.29488696,44.1767591 1.34783427,44.2382484 C1.41332174,44.3146441 1.48066701,44.3896423 1.55079898,44.4627773 C1.60235294,44.5163474 1.65483581,44.5680543 1.70871202,44.6192953 C1.78441739,44.6924303 1.86151611,44.7632361 1.94140153,44.8317127 C1.9985289,44.8806246 2.05704962,44.9276732 2.11557033,44.974256 C2.19545575,45.0371427 2.27534118,45.0981661 2.3589422,45.1568604 C2.42860972,45.2057723 2.49967059,45.2518892 2.57119591,45.2975403 C2.64736573,45.3459864 2.72353555,45.3935008 2.80249207,45.4382202 C2.89120205,45.4889954 2.98223427,45.536044 3.0741954,45.582161 C3.14107621,45.6152347 3.20702813,45.6487743 3.27576675,45.6795189 C3.38444808,45.727965 3.49591611,45.7717528 3.60831304,45.8136773 C3.64918465,45.8290496 3.68773402,45.8481485 3.72907008,45.863055 C3.75182813,45.8709741 3.77458619,45.8756323 3.79734425,45.8835514 C3.87769412,45.9101036 3.95943734,45.933395 4.04118056,45.9566863 C4.13035499,45.981841 4.21906496,46.0051324 4.30870384,46.0256288 C4.37837136,46.041467 4.44803887,46.0563734 4.51863529,46.0698824 C4.63707008,46.0922422 4.75596931,46.1094778 4.87486854,46.1243843 C4.92131355,46.1299742 4.96636522,46.1369616 5.01281023,46.1416199 C5.19023018,46.1588555 5.36672123,46.1700354 5.54274783,46.1700354 C5.55528798,46.1700354 5.56829258,46.1681721 5.58129719,46.1681721 L31.0545289,46.1681721 C34.117113,46.1681721 36.6005279,43.6778578 36.6005279,40.6057249 C36.6005279,37.5335919 34.117113,35.0432777 31.0545289,35.0432777 L14.3013483,35.0432777 C17.7758997,28.8072438 24.1267908,19.4599474 34.6777043,10.3292609 C34.7241494,10.2891997 34.7645565,10.2444803 34.8091437,10.2030216 Z" id="Fill-7" fill="#FFFFFF" mask="url(#mask-2)"></path>
                    </g>
                </g>
            </g>
        </g>
    </g>
</svg>